/* XPM */
static char *f39d2339025a4064caa26e4add7cf472ginxWf7quJ4xi9FT[] = {
/* columns rows colors chars-per-pixel */
"50 50 243 2 ",
"   c #251F39",
".  c #4C3731",
"X  c #35314A",
"o  c #2D2F57",
"O  c #2D3165",
"+  c #363A6B",
"@  c #3A3C6E",
"#  c #343966",
"$  c #3A3D74",
"%  c #363B72",
"&  c #2B2D66",
"*  c #483A42",
"=  c #3E4266",
"-  c #3D4172",
";  c #3C407D",
":  c #494156",
">  c #5A454A",
",  c #484B6B",
"<  c #424375",
"1  c #43457B",
"2  c #4A4B7D",
"3  c #494A76",
"4  c #4C5775",
"5  c #595D7C",
"6  c #565878",
"7  c #515169",
"8  c #63586D",
"9  c #5A627C",
"0  c #686479",
"q  c #7C6C78",
"w  c #7A6A71",
"e  c #715C58",
"r  c #897473",
"t  c #4B4B84",
"y  c #4B4B8C",
"u  c #454886",
"i  c #534B82",
"p  c #514C8C",
"a  c #4C548B",
"s  c #595788",
"d  c #4C4D95",
"f  c #524F94",
"g  c #4D5191",
"h  c #555293",
"j  c #5B5494",
"k  c #585898",
"l  c #645E87",
"z  c #625D95",
"x  c #5E6482",
"c  c #5D668A",
"v  c #5E639B",
"b  c #636484",
"n  c #6B6B83",
"m  c #64638C",
"M  c #656A8B",
"N  c #6B6D8C",
"B  c #666A87",
"V  c #716C88",
"C  c #6D718E",
"Z  c #687289",
"A  c #7A7C8C",
"S  c #747588",
"D  c #646492",
"F  c #676A91",
"G  c #6C6D91",
"H  c #686798",
"J  c #726E99",
"K  c #6D7193",
"L  c #697497",
"P  c #737594",
"I  c #74739B",
"U  c #7B7C9B",
"Y  c #797998",
"T  c #6A6AA8",
"R  c #7B7BA3",
"E  c #7876A5",
"W  c #7D7CB4",
"Q  c #696AB4",
"!  c #595AA8",
"~  c #887B89",
"^  c #837C99",
"/  c #827CA5",
"(  c #847DAA",
")  c #8077A4",
"_  c #817FBE",
"`  c #7C819E",
"'  c #7D82A4",
"]  c #7E87AA",
"[  c #7E80B3",
"{  c #92858B",
"}  c #878999",
"|  c #938898",
" . c #8F919C",
".. c #A99899",
"X. c #8184A3",
"o. c #8A8BA4",
"O. c #8383AA",
"+. c #858AAC",
"@. c #8A8CAC",
"#. c #8886A7",
"$. c #968CA8",
"%. c #8C94AB",
"&. c #9597A7",
"*. c #8B8DB4",
"=. c #8885B8",
"-. c #958CBA",
";. c #938BB3",
":. c #8D91B4",
">. c #8F97BB",
",. c #9293B5",
"<. c #939CB5",
"1. c #999CB5",
"2. c #9B9DBB",
"3. c #9696BB",
"4. c #AA9BAA",
"5. c #A59BBA",
"6. c #9DA1AA",
"7. c #9EA2B4",
"8. c #9CA3BC",
"9. c #95A6B7",
"0. c #9DB1BC",
"q. c #A8A5AB",
"w. c #A4A4BB",
"e. c #ABADBB",
"r. c #A7A7B5",
"t. c #B4ABB9",
"y. c #ABB2B9",
"u. c #B4B3BD",
"i. c #B8B5B9",
"p. c #B6ABAF",
"a. c #C8B6BA",
"s. c #CCB5AF",
"d. c #BBC5BC",
"f. c #DAC4BD",
"g. c #9997C5",
"h. c #8D8CC4",
"j. c #A59BC4",
"k. c #A59CC7",
"l. c #A49FD3",
"z. c #9DA2C3",
"x. c #9EA5C7",
"c. c #9DB4C2",
"v. c #A2A5C3",
"b. c #A4A9C5",
"n. c #AAACC5",
"m. c #ABADCA",
"M. c #A9A4C8",
"N. c #B4AACC",
"B. c #BEABCB",
"V. c #B8A7C7",
"C. c #ACB2C7",
"Z. c #AAB7C8",
"A. c #B2B4CB",
"S. c #BABCCB",
"D. c #B8B6C7",
"F. c #ACA7D7",
"G. c #B4ABD4",
"H. c #BDACD3",
"J. c #BAAED9",
"K. c #B4A9D5",
"L. c #ADB2D5",
"P. c #BCB3D4",
"I. c #BBBDD3",
"U. c #BCB2DA",
"Y. c #B4B8D7",
"T. c #BFB6E1",
"R. c #C2ACCC",
"E. c #CDBBC3",
"W. c #C3B3CD",
"Q. c #C5B9CB",
"!. c #C2AED3",
"~. c #C0AFD9",
"^. c #C4B4D4",
"/. c #CAB4D3",
"(. c #C4BBD3",
"). c #C4B5DB",
"_. c #C4BADB",
"`. c #C9BBDC",
"'. c #CABBD6",
"]. c #D1BBD3",
"[. c #C4B9E2",
"{. c #CBBDE3",
"}. c #C5BAE8",
"|. c #C9BFF1",
" X c #AAC3C9",
".X c #B8C6C9",
"XX c #B9C7D3",
"oX c #BAD5DA",
"OX c #ACC3D2",
"+X c #BCC6E2",
"@X c #CBC2CC",
"#X c #C5C8CA",
"$X c #D7C6C8",
"%X c #C2C4D3",
"&X c #C5CCD5",
"*X c #C3C3DB",
"=X c #C5C9DC",
"-X c #CACDDD",
";X c #CCC6D6",
":X c #D3CBDD",
">X c #D7C8D8",
",X c #CCD2DD",
"<X c #C7D5D7",
"1X c #D6D5DC",
"2X c #CDD3CF",
"3X c #E5D6DC",
"4X c #E2CDCD",
"5X c #CAC8E4",
"6X c #D2CCE5",
"7X c #D7CCE5",
"8X c #CED1E2",
"9X c #C5D8E6",
"0X c #D3D4E4",
"qX c #D4D3EA",
"wX c #DBDCEC",
"eX c #DAD8E8",
"rX c #D6D2F3",
"tX c #E5D9E5",
"yX c #E3DCF5",
"uX c #E1CAE2",
"iX c #DAE2E8",
"pX c #D0E5E8",
"aX c #E5E3ED",
"sX c #EAE6ED",
"dX c #E6E3F3",
"fX c #EAE5F3",
"gX c #ECEAF4",
"hX c #EDECF9",
"jX c #E5E8F8",
"kX c #F2ECF5",
"lX c #F1EEFB",
"zX c #F1E7F2",
"xX c #EEF1F6",
"cX c #EEF3F9",
"vX c #F4F4F5",
"bX c #F6FAF6",
"nX c #F4F4FB",
"mX c #FBF6FB",
"MX c #F6FAFC",
"NX c #FDFEFE",
"BX c #FCFDFD",
"VX c #F9FBF6",
"CX c #F2E3EE",
/* pixels */
"VXBXBXBXBXMXBXBXBXBXBXmXjX[.J.K.g._ Q ! k a a g ! d g u a a a t p y p p p h f j f j f k j i k.7XlXmX",
"BXBXBXBXMXBXBXBXBXBXBXBXyX).5.3 E _ Q Q ! h k h ! d g u g g u k p p h p j p j j j j j j j l k.uXlXBX",
"VXBXBXBXbXBXVXBXBXBXBXBXdX*X5.X m =.Q T j j j j f d p u y d g y y y p y p f p f j j p j j 2 j.rXlXBX",
"BXBXBXVXBXMXMXBXBXBXBXBXdX*Xw.X l W T z j i i i p y h y d y y y h u t p f h j j p j p j j i j.7XnXBX",
"BXVXBX;X&.aXBX6. .bXBXBXdX5XV.o P m.l.j.5.$.-.g.g.h._ [ v ; - % % $ t W _ _ h.g.l.F.F.F.l.K.[.7XlXBX",
"VXBXnX .A r.1XA q i.BXBXyX6XI.X 2.yX7X].>XW.{.U.x.h.[ v & & - # @ + $ 2 z z J _ }.|.|.}.}.|.{.5XnXBX",
"VXBX1X} D.1.C.6.D.&.BXMXhXrXM.X Y (.;XR.E.a.M.) g.g.E O o = = O o # @ + p H H ( J.}.}.}.}.).{.>XlXBX",
"BXBXwXe.eX%.1.XXiX .aXwX(.o.l X 0 ~ ^ a...4.^ I [ W v - O - = - 4 s < + @ i l ) J.}.[.~./.}.{./.nXBX",
"VXBXBXBX=X&.r.S.iXo.gXq.A S X.  8 ^ q r | 4.l O.T W E s c ' >.>.:.] a = + ; D ( J.}.).).).{.5X'.hXBX",
"BXVXBXBX6.r.y.S.jX} MXcX5.6XqX0 4.4X/.>Xt.5.( s ] =.E J #.2.Y.L.z.>.v O O - H =.J.{.).).).^.).`.lXBX",
"VXVXBXdX` iXr.A.eX} gXeX7X6X6X'.E.4XE.t.'.;./ E L *.R @.o.n.Y.I.z.z.R @ + $ s ) K.).^.).'.!.).(.hXMX",
"BXbXBXD.} nXy.r.-X&.BX%Xe.$.w.D.....4.~ 5.5./ M.R ' @.o.<.S.8XXXC.x.] - % @ s I K.).^.^.^.`.`.I.hXMX",
"BXBXMX .A } XXA A t.BXD.~ $.$.8 r ..4.$.V.5./ ;.;.*.*.<.7.I.8X8XI.n.O.- + + a O.G.5X).W.W.'.;X^.cXBX",
"VXBXeX} }  .xX7. .iXmXmXdX(.Q.X r E.{.uX{.k.M.5.;.3.,.8.8.S.0X8XXXC.+.- + + 2 R G.[.).^.^.(.`.(.hXMX",
"BXVXBXgXxXcXxXcXnXBXkXnXeX%XQ.* { tX>X{.^.V.^.^.-.g.z.C.7.XXeX8XXXN.*.% O & - E F.T.P.(.^.^.)._.jXMX",
"BXBXBXBXbXbXMXMXnXnXBXBXtX@X@X* ~ tXuXuXR.M.R.5.j.J ' Y.Z.qXwX*XA.n.*.$ % & t O.F.[.J.!.H.^._._.hXMX",
"BXBXBXBXBXBXBXBXBXBXVXBXaX@X@X* ~ tXuX/.V.V.W.5.5.I # 2.I.#., 5 :.v.*.+ O O 3 =.F.[.J.~.!.H.).P.hXMX",
"BXBXBXBXBXBXBXBXBXBXBXBXaX>X@X> { CXuX].W.t.@Xt.M.;.M ] +Xc K ] c g.*.$ o 3 2 E G.U.~.!.H.H.^.^.jXMX",
"BXBXBXBXBXBXBXBXBXBXBXBXzXtX4X. { CX].].Q.p.1Xq.P.#., I 5Xz.F R #.*.<.# s x.E J K.[.~.~.H.^.^.^.hXMX",
"BXBXBXBXBXBXBXBXBXBXBXBXzXtX4X. { mX>XE..Xi.2X.X'.,.3 *.+XM.6 , +.2.>.# ] L.*.W K.[.!.!.!.^.^.(.gXBX",
"BXBXBXBXBXBXBXBXBXBXBXBXkXtX4Xr p.zX1Xt.y.#XiX<XY.z.g.z.Y.M.g.n.n.A.g.3 [ Y.( / K.[.H.~.!.R./.^.hXBX",
"BXBXBXBXBXBXBXBXBXBXBXBXkX3X4Xf.3XCX>XQ.2X<X<X<Xw.n.z.g.T.Y.XX5XI.A.n.7 +.Y.( J K.~.V.V.R.V./.Q.hXBX",
"VXBXBXBXBXBXBXBXBXBXBXBXCX4Xf.s.$XtX>XS.pXpXpXoXn.8.M.L.m.S.5X8X0X=XA., >.L.( ) V.~.V.R.R.R./.Q.hXmX",
"BXBXBXBXBXBXBXBXBXBXBXBXCXf.f.r ..tX>Xr.<XoXoX.X0.z.m.5XA.&.8X0X-X=Xv.5 >.F.I ( K.~.!.R.V.R.R.V.fXMX",
"VXBXBXBXBXBXBXBXBXBXBXBXtXE.s.. r sXa.r.oXoXoXoX9.<.m.v.w.} .XaX-X%Xw.X.M.>.l I k.H.V.R./.W.W.(.hXnX",
"mXBXBXBXBXBXBXVXBXBXBXBXtXE.s.. r 3Xt.i.oXOXoXc.<.2.A.B U r.y.eX8XS.n.,.L.=.s I k.H.R.R.R.].V.Q.fXvX",
"VXBXBXBXBXBXBXBXBXBXBXBXtXE.s.. e $Xi.q.Z. XoXc.x.8.z.` 8.A.C.qX-XC.m.' F.R l / !.!./.R.R.R./.B.fXcX",
"BXBXBXBXBXBXBXVXBXBXmXmXtXE.a.. e f.p.6.XXOX XOX9.2.:.X.3.b.Z.=X=XA.b.U K s m E K.!.V.R.R.R.W.W.dXcX",
"MXMXVXBXBXBXBXBXBXBXVXvXsXE.s.. e $Xp.q.oX.X XOX<.2.P 3 G #.8.XXI.C.2.P 3 2 l ) V.{.!./.R./.R.].dXcX",
"VXBXBXBXBXBXBXBXBXnXvXvXyX].E.> w 1Xq.u. X X X X<.z.F = , , X.Y.C.b.,.b s z l ( K.!.R./.R./.R.Q.aXxX",
"BXMXBXBXBXBXBXBXBXmXbXkXCX3X>X* r eXq.&X X XoX0.9.x.L F +.z.C.1.w.1.@.K 5 l z ( H./.R.R.R./.V.Q.sXcX",
"MXBXBXBXBXBXBXBXVXvXvXVXfX;XtX~ 4.eXt.XX.X X Xy.%.v.M I O.z.C.%.<.:.U K F s z ) K./.R./.R.R.W.'.aXxX",
"BXBXBXBXVXVXBXVXbXVXnXkXkX7XtX>XuX1Xt.%X.X.XoX X&.b.M ` Y.Z.8.#.%.X.C U :.s J ( J.{./.!.R.!./.'.dXxX",
"MXMXBXBXBXVXBXBXmXvXmXnXyX7XtX7XeX>Xu..X<XXX XoXC.A.+.] 5X5X<.X.R P C n.5.l J ;.J.rX`.!./.~.R.R.dXcX",
"MXMXMXMXVXMXVXVXVXVXBXBXyX:X6XV | >X&.#X<Xd..X.Xe.n.@.P ,.A.%.M N B 7.XX2.m H / J.{.).`.~.B.!.W.fXnX",
"MXBXBXMXVXbXbXVXvXBXmXBXsX_.tX* ~ 2X..#Xd.d..Xd.r.A.%.C 7 b s 6 x 2.5X5X2.N V / [.rX{.^.`.).'.^.fXnX",
"bXMXMXMXVXMXvXVXBXBXBXBXfX'.:X7 r #Xy.2Xd.d.d.d.u.I.%.b ,.m 4 m <.wXXX=X1.b I m ^ K.5X`.`.).).^.fXMX",
"MXMXMXMXVXMXMXBXmXmXmXBXfX;X_.* 0 %Xp..Xd.d.f..XC.D.o.5 b.rXX.#.rX8X-X8X#.V P G G V ^ M.`.`.^.B.fXMX",
"BXMXBXMXVXVXBXMXnXBXbXBXfX6X:X7 q XXy.2X.Xd.d.d.4.} C 9 Y.+Xs Y.jX,X-X=X} n K N J Y V V #.).).S.fXMX",
"MXMXMXBXBXBXBXMXmXVXmXBXkXW.N.* n y.y.<Xy.&.d.d.S C B x XXm 4 U qX,XeXXXS N U P P ^ Y Y / U._.^.fXBX",
"BXBXVXBXBXBXnXmXBXBXvXBXkX(.w.: 0 n.e.u.r.y.0.9 9 ` x Z 8.6 A 0 r.aX,Xe.S Z U P P A U P I P.).I.hXBX",
"iX1XvXBXBXxXsXBXaXfXBXmXfXeXwX7 n eXS.-X<XXX] 7 Z Z 9 ` <.9 0 n e.-XwXo.n B C P B , N , l H.).P.fX1X",
"#XxXxXBXBXq.,XBX1Xp.BXMXhXtXyXn | 8X.X&Xy. X%.7 Z Z x ] <.7 5 D.&X%X,XA n b C K N K 6 b 6 J.P.N.Q.1X",
"1X2XvXBXVX#XmXmXBXt.vXBXlXyX5X).D.(.%XXX0.OX9.4 Z x L ' x.5 A 0X8X%XC.S n b C M M 9 9 B l m.).N.eX;X",
"2XmXBXBXBXBXfXhXvX@XkXBXlXwX).N.R.S.S.<X XOX9.4 c Z Z ] L.x %.qX5X8Xw.n n b K N x 9 m 4 l K.U.M.S.,X",
"VXVXBXBXBXnXS.@X%XBXmXBXlXyX5X).5X*X8XjXoXoX9.4 9 Z c :.x.4 U 0X=XqX#.b C s N K 9 = G , l K.^.V.aXVX",
"nXBXBXVXVXmXD.1Xr.mXBXBXnXqX5XU.[.Y.+XjXoXoXz.L U ] ] x.g.` %.OX5X5X%.} *.' *.+.+.<.+.-.( M.H.N.wXsX",
"mXBXBXBXBXBXt.:X;XmXmXBXlXP.G.-.;.] ] ] ] ] L L L E D H D H m Z x B F m m F D M M F F H z s 5.P.eXxX",
"vXBXBXBXBXBXBXBXBXBXBXBXlX_.G.g.=.J D v s a - - ; ; - - - ; - - - < 1 1 < < < < 3 3 < 1 t 1 ;.P.wXxX",
"VXBXBXBXBXBXBXBXvXmXBXBXlX`.K.k.h.W T T v k a a a a u ; u u ; 2 1 2 t t t t i i i i i t p i -.`.wXxX"
};
