/* XPM */
static char *ee1406153122413fbc6292d5c64538dfTzGMKAjvtJrIeSsW[] = {
/* columns rows colors chars-per-pixel */
"50 50 139 2 ",
"   c None",
".  c #030303",
"X  c #0A0504",
"o  c #070708",
"O  c #080708",
"+  c #0B0B0B",
"@  c #100504",
"#  c #100F0F",
"$  c #141313",
"%  c #181717",
"&  c #191718",
"*  c #1C1A1A",
"=  c #211E1D",
"-  c #2D261C",
";  c #37271D",
":  c #211F20",
">  c #242223",
",  c #282626",
"<  c #2A2728",
"1  c #2D2B2C",
"2  c #382F23",
"3  c #302D2E",
"4  c #393025",
"5  c #322F30",
"6  c #343132",
"7  c #393637",
"8  c #3B3939",
"9  c #760906",
"0  c #6D1709",
"q  c #7F251B",
"w  c #5A3426",
"e  c #413E3F",
"r  c #64543F",
"t  c #444243",
"y  c #4D4A4B",
"u  c #575555",
"i  c #595757",
"p  c #5B5859",
"a  c #6D5C44",
"s  c #7A664C",
"d  c #7F6A4F",
"f  c #625F60",
"g  c #656364",
"h  c #686666",
"j  c #706E6F",
"k  c #747273",
"l  c #7C7A7B",
"z  c #930100",
"x  c #9C0503",
"c  c #86180C",
"v  c #96100A",
"b  c #A10503",
"n  c #A10A06",
"m  c #A90D07",
"M  c #AD150C",
"N  c #AC1B0D",
"B  c #B31C0E",
"V  c #B51C11",
"C  c #B3200D",
"Z  c #B62B0E",
"A  c #B92F0F",
"S  c #B7300D",
"D  c #BA330E",
"F  c #B42113",
"G  c #BD2713",
"H  c #B52D13",
"J  c #B92B12",
"K  c #BE3211",
"L  c #C43A0D",
"P  c #C22B17",
"I  c #C33414",
"U  c #C63C12",
"Y  c #C83F11",
"T  c #974131",
"R  c #9F5B3F",
"E  c #BB5521",
"W  c #B45B36",
"Q  c #C6480E",
"!  c #CB510F",
"~  c #D0570F",
"^  c #D35B0E",
"/  c #CA4215",
"(  c #CD4914",
")  c #D14E14",
"_  c #D25312",
"`  c #D45C11",
"'  c #D85D13",
"]  c #CE620E",
"[  c #D4650F",
"{  c #D86A0E",
"}  c #DD6B11",
"|  c #E57F0F",
" . c #E67E10",
".. c #9D6E52",
"X. c #877154",
"o. c #E5820D",
"O. c #E8860E",
"+. c #E7890C",
"@. c #E98B0D",
"#. c #EE970C",
"$. c #F19C0B",
"%. c #F1A10A",
"&. c #F6AC08",
"*. c #F8AF08",
"=. c #F7B007",
"-. c #F9B706",
";. c #FCBE05",
":. c #FEC702",
">. c #FFCC00",
",. c #9E8462",
"<. c #A08663",
"1. c #A58D69",
"2. c #AA8E6A",
"3. c #B38B68",
"4. c #AF946E",
"5. c #B1956E",
"6. c #BB9D75",
"7. c #C3A479",
"8. c #817F80",
"9. c #818081",
"0. c #908F8F",
"q. c #989798",
"w. c #A4A3A3",
"e. c #B7B7B7",
"r. c #B6B5B6",
"t. c #B6B5B5",
"y. c #BCBCBC",
"u. c #BBBABB",
"i. c gray78",
"p. c #C8C7C7",
"a. c gray79",
"s. c #D2D2D2",
"d. c #DADADA",
"f. c #E5E5E5",
"g. c #ECECEC",
"h. c #EFEFEF",
"j. c #F1F1F1",
"k. c #F2F3F3",
"l. c #F2F2F2",
/* pixels */
"                                                                                                    ",
"                                                                                                    ",
"                                                                                                    ",
"                                                                                                    ",
"                                                                      z                             ",
"                                                                      n                             ",
"                                                                      M                             ",
"                                                                      F                             ",
"                                                                  x   I N V                         ",
"                                                            M C   M N / K ( H B n                   ",
"                                                              ) _ D ` O.@.%.o.U       x z           ",
"                                                              D $.%.-.>.>.>.$.K K G V               ",
"                                                    x v N I _ } =.>.>.>.>.>.;.| ( J                 ",
"                                                    . @ w R W E ] =.>.>.>.>.:.+.S                   ",
"                                                  . - a 4.1.3.T H #.>.>.>.>.>.:.%./ x               ",
"                                        . . . . . - ,.2.6...q 9 c [ :.>.>.>.&.%.*.`                 ",
"                                      . + & % X 2 ,.4.5.s ; X . 0 @.:.%.-.:.{ Z ! ` / F             ",
"                        o # $ $ $ $ + . > 6 1 = X.7.,.a X .     B @.#.D | :.@.                      ",
"                  o # * < 1 1 3 3 1 $ + < 6 * s ,.7.a o .     z N { Q   ^ { _ U                     ",
"              . # : 3 3 3 3 3 3 < % o $ = 5 * a 2.d * $ .       J /     L _   C                     ",
"            o * 3 5 3 3 3 3 3 3 > # X % % > 1 * 4 = , 3 +       B       B (     z                   ",
"          o * 1 3 3 3 3 3 3 3 3 < $ o $ % % 3 5 , < 5 3 + .   x n       m P                         ",
"        o : : < 3 3 3 3 3 3 3 3 3 = + O % > 5 < = 3 6 , o     z         b V                         ",
"      . * : * 3 3 3 3 3 3 3 1 3 3 1 * + + , 5 : = 3 1 $ .               x m                         ",
"      $ > % > 1 3 3 3 3 3 3 3 3 3 3 3 : # o $ & , 3 * + > +                                         ",
"    + > % % , 3 3 3 3 3 3 3 3 3 3 3 3 3 1 * # $ $ + + > 5 *                                         ",
"  . $ * % % < 3 3 3 3 3 3 3 3 3 3 3 3 3 3 7 X.i.e.9.8 1 3 1 +                                       ",
"  + > & % % 1 3 3 3 3 3 3 3 3 3 3 3 3 3 1 l g.l.k.l.e.t 3 5 %                                       ",
"  $ > % % * 3 3 3 3 3 3 3 3 3 3 3 3 3 3 6 e.l.h.h.h.h.w.5 3 , o                                     ",
". * * % % * 1 3 3 3 3 3 3 3 3 3 3 3 3 3 6 e.l.h.h.h.h.f.i 1 1 +                                     ",
"o * % % & * 1 3 3 3 3 3 3 3 3 3 3 3 3 3 1 0.l.h.h.h.h.h.l 1 3 $                                     ",
"+ > % % % % 1 3 3 3 3 3 1 3 3 3 3 3 3 3 1 y s.l.h.h.h.l.l 1 3 %                                     ",
"+ > $ % % % < 3 3 3 3 3 3 3 3 3 3 3 3 3 3 1 h d.l.l.k.s.y 1 3 *                                     ",
"+ > % % % % , 3 3 3 3 3 3 3 3 3 3 3 3 3 3 3 3 u w.p.t.g 3 3 5 *                                     ",
"+ > % % % % = 1 1 3 3 3 3 3 3 3 3 3 3 1 3 3 6 k q.h 6 1 3 3 3 *                                     ",
"+ > % % % % % 1 3 3 3 3 3 3 3 3 3 3 3 3 3 1 g f.k.d.f 1 3 3 3 %                                     ",
"o > * % % % % , 3 3 3 3 3 3 3 3 3 3 3 3 3 1 j h.h.k.t.5 5 3 3 #                                     ",
". * * % % % % * 1 1 3 3 3 3 3 3 3 3 3 3 3 3 t a.k.k.p.8 3 3 < O                                     ",
"  $ > $ % % % % , 1 3 3 3 3 3 3 3 3 3 3 3 3 1 p y.s.l 3 3 3 : .                                     ",
"  + > % % % % % % 1 3 3 3 3 3 3 3 3 3 3 3 3 3 1 8 e 5 3 3 3 $                                       ",
"    * > % % % % % > 1 3 3 3 3 3 3 3 1 3 3 3 3 3 3 1 3 3 3 > o                                       ",
"    + > * % % % % $ > 1 3 3 3 3 3 3 3 3 3 3 3 3 3 3 3 3 3 $                                         ",
"      % > % % % % % % > 1 6 3 3 3 3 3 3 3 3 3 3 3 3 3 3 = .                                         ",
"      . * > % % % % % % > 1 1 3 3 3 3 3 3 3 3 3 3 3 5 > +                                           ",
"        o - : % % % % % $ * < 5 3 3 3 3 3 3 3 3 3 5 < +                                             ",
"          o * > % % % % % % % > 1 1 3 3 3 3 3 3 5 > +                                               ",
"            o % , : % % % % % % * : > 1 1 3 5 1 = +                                                 ",
"                + * , > * % % % % % % * > 1 > # .                                                   ",
"                    + % > > , , > > > : * # .                                                       ",
"                        . O + + $ + + .                                                             "
};
