/* XPM */
static char *_f000fbfe80e457ecf2b0bae9f00a272kxPKYEllcMh2cttp[] = {
/* columns rows colors chars-per-pixel */
"50 50 161 2 ",
"   c #020201",
".  c #080703",
"X  c #070803",
"o  c #0B0B05",
"O  c #0E0D09",
"+  c #120F06",
"@  c #110F0A",
"#  c #0F100A",
"$  c #121004",
"%  c #14130C",
"&  c #19160E",
"*  c #1B180E",
"=  c #151411",
"-  c #191712",
";  c #1D1B13",
":  c #1F1E19",
">  c #211E14",
",  c #221F18",
"<  c #232215",
"1  c #282617",
"2  c #25231A",
"3  c #29261C",
"4  c #2C2A1E",
"5  c #2A2720",
"6  c #2D2B22",
"7  c #2E2D2B",
"8  c #312E24",
"9  c #322F28",
"0  c #343126",
"q  c #353329",
"w  c #39362B",
"e  c #3C392E",
"r  c #3A3730",
"t  c #3E3B31",
"y  c #403E2F",
"u  c #413E33",
"i  c #444136",
"p  c #464339",
"a  c #49463B",
"s  c #4D493D",
"d  c #524C3F",
"f  c #484742",
"g  c #4E4C42",
"h  c #524E43",
"j  c #555146",
"k  c #585546",
"l  c #565248",
"z  c #5A564A",
"x  c #5D594E",
"c  c #565751",
"v  c #5E5B50",
"b  c #615E4F",
"n  c #615E52",
"m  c #656155",
"M  c #676359",
"N  c #69665A",
"B  c #6D695E",
"V  c #716E5F",
"C  c #6F6B61",
"Z  c #726E62",
"A  c #757166",
"S  c #787167",
"D  c #777368",
"F  c #7A766B",
"G  c #7D796E",
"H  c #7F7B70",
"J  c #7F7C75",
"K  c #7F7B71",
"L  c #817B6D",
"P  c #807C71",
"I  c #817D72",
"U  c #827E73",
"Y  c #847D73",
"T  c #837F74",
"R  c #827D73",
"E  c #848075",
"W  c #858176",
"Q  c #878377",
"!  c #858176",
"~  c #898377",
"^  c #878378",
"/  c #878378",
"(  c #888479",
")  c #8B8579",
"_  c #89857A",
"`  c #8B877D",
"'  c #8A857A",
"]  c #8D897E",
"[  c #8E8A7F",
"{  c #8D897E",
"}  c #918A7F",
"|  c #8D8980",
" . c #8F8B80",
".. c #8F8B81",
"X. c #918D81",
"o. c #928E83",
"O. c #928D83",
"+. c #938E88",
"@. c #949085",
"#. c #959186",
"$. c #989187",
"%. c #979388",
"&. c #97938A",
"*. c #969288",
"=. c #989489",
"-. c #9A968B",
";. c #99958C",
":. c #9A958B",
">. c #9C988D",
",. c #9D998E",
"<. c #9F9B90",
"1. c #9F9B90",
"2. c #A09A8F",
"3. c #A09C91",
"4. c #A49E92",
"5. c #A29E95",
"6. c #A29D97",
"7. c #A59E96",
"8. c #A29D93",
"9. c #A49F99",
"0. c #A5A196",
"q. c #A6A297",
"w. c #A5A196",
"e. c #A8A197",
"r. c #A8A296",
"t. c #A7A299",
"y. c #A8A498",
"u. c #ABA59B",
"i. c #ADA89E",
"p. c #ADA7A1",
"a. c #AFAAA4",
"s. c #AEAAA1",
"d. c #B2ADA4",
"f. c #B4AFA9",
"g. c #B4B0A6",
"h. c #B6B2A9",
"j. c #BAB5AC",
"k. c #BDB9AF",
"l. c #BCB7B1",
"z. c #BEBAB1",
"x. c #C1BCB4",
"c. c #C3BEB9",
"v. c #C4C0B7",
"b. c #C6C1BB",
"n. c #C9C4BD",
"m. c #CCC8BF",
"M. c #CBC6C1",
"N. c #CEC9C3",
"B. c #D1CCC7",
"V. c #D4CFCB",
"C. c #D3CECA",
"Z. c #D6D1CC",
"A. c #D9D4CE",
"S. c #DBD6D2",
"D. c #DDD9D4",
"F. c #E0DBD7",
"G. c #E1DCD8",
"H. c #E2DDDA",
"J. c #E6E1DD",
"K. c #EAE6E3",
"L. c #ECE8E5",
/* pixels */
"a x a h x v B D k s I 6.a.6.O.;.<.&.W T G D W D G F D B m m B x h ` K Z a u q q 0 6 > * $ o o       ",
"l ^ G D T X.D D v n | V.G.^ Z T D m v z l c s i s i f a u w k x h h s p w 0 3 5 8 6 ; X             ",
"G 7.{ ^ F B s s v T T 9.;.m k z z l j n F N n m x v x j z a p t 6 5 : - ; , ; , , ; O               ",
"{ q.G m x x l j v l h l h g p i t q 6 5 w 6 6 0 6 5 6 0 9 p a p u a s h l l z h a q O       o . o X ",
"..4.T j , ; 4 8 8 w w r u f p 9 t a p j n B H W / / ) @.T G D D F n N B j v M a w z @       o $ $ o ",
"W ..R N @ O s n n P A Y F X.( n J ;.=.#.#.0.<.>.3.q.q.,.@..._ G L Z B N n x k C n B 8   . @ & & % O ",
"R =.{ T e 8 Z X.| ( Z T ` ( T C D G D A D D Z B N b c j f i r q 8 6 5 , - O > T F I n O X - < > * & ",
"X.:.T >.j B u.u.N p 8 w w 0 q 8 6 4 6 6 6 0 w w e s 8 5 w p p a h p p g z u r ~ D R N > $ < 8 4 3 < ",
"T =.F <.M D d.>.F r & p p z n g m C D Z Z Z Z D B ..T N x l p s l m m k g D N G A } z & & 2 8 8 0 3 ",
"K 7.=.f.:.I d.d.X.u p Z F M O.' z n Z Z B m n z l b ..#.@.^ B s 4 c p w q j M _ F $.p > 2 > 4 w 0 2 ",
"F 3.=.f.7.{ f.u._ u a N k p M ..n m N Z n x N Z g ; 7 c F ..) O.) A p 0 j s m 2.F G p > 4 4 u u w 3 ",
"^ <.t.d.#.X.d.l.=.s m F b Z F N B N N S Z x w O           - q j | 8.=.B > e V #.G z 1 8 4 w p e e r ",
"3.d.,.u._ X.s.d.{ k B F Z B x B x n V g ;       . @ & * =       % g ;.j.C < N =.E N > 6 : ; > & < 0 ",
"O.=.B 6.;.{ 7.d.X.b V Z n z m j D e O       = > 6 3 y u e @ 8 6 O   - ..x.m x 4.$.C % * o O + .   - ",
"C Z F I K ,.u.h.;.x C G z D h I 6     . - & w h l 6 g h a % p h q < o 4 a.d.B 4.#.{ a 8 6 4 &     - ",
"2 , 8 8 q F d.j.8.k F ( ( n T p     o 8 u 5 h h z 9 h z z 5 h b s 0 0 0 D n.G u.,.q.q.X.K F 6 . - - ",
"6 O w j x E @.j.q.b D _ _ N ~ >   . 9 h s 6 s j m w v z n q v B n w w h z h.F e.6.8.8.w.X.' r   .   ",
"a 4 k N [ 0.q.j.o.h z F Z h V * . ; w s a 0 p h l 5 g x s 2 a n h 6 5 p s d.F 8.8.8.8.2.<.4.p   O . ",
"k N @.0.k.g.g.z.3.z n L G z V * . 0 u p x w j z n 0 m v j 9 p z z 9 r z h e.D 6.,.q.0.8.>.3.Z 9 u t ",
"h K y.k.z.k.k.z.e.z m T W m S * @ e h y k w M V B u Z N v w x n V r u z n 2.B 3.=.,.<.0.:.T Y V Z M ",
"N o.h.j.k.x.n.j.=.h k Z D x N % & e j i l i m m M u B m n w M N M 8 u z z 1.M :.o.2.2.2.$.2.:.$.+.I ",
"A u.x.c.x.v.v.d.%.s x F F b N % % u j s p i k s a q Z M h 5 m B N ; u z z 3.B 2.O.:.2.O.O.$.2.2.$.] ",
"~ g.h.f.j.k.l.s.#.h k F F n B * % i d l k w k i j r G B n w m V B 5 h b z :.N :.} :.2.$.$.$.O.O.) T ",
"~ u.i.t.i.k.c.s.%.s k K Z m V * * e s z b w z l x p Z M N q Z F D 6 h m z ` n X.Z I O.] Y Y Y Y D V ",
"T 2.2.q.t.i.d.i.#.s e b B l m $ > e i k s 0 a j h r n n a 8 B B v 5 g x l #.n :.T x D _ ( F S N Z n ",
"Y 2.,.q.g.u.y.d...s p V V l x * < w s s i q i d p 8 k j i q x v l 5 s j l ..B 3.( n v F T S Z Z C B ",
"Y 1.9.t.s.y.j.k.@.x x K / m M > 1 w k x z i m x h u F R v w Z B V 0 m z k F n } T n k n B n b z z z ",
"3.j.c.M.M.C.S.C.<.Z ..g.d.,.>.i 4 w s m x i m k p u G T m 0 Z n m 6 n x v I x ` Z h K { { K Z C B N ",
"( <.u.M.C.C.S.Z.<./ y.v.b.k.0.g < y j m i e m x q i D G s 4 n z j ; M x h V m =.} Y ) ( Y V z z n z ",
"<.z.v.M.Z.S.J.D.s.[ z.S.m.M.g.s ; i j b s i N k e u B Z s 6 n x s * a g k S M i.q.y.u.i.t.o.B D K Z ",
"@.h.d.l.S.D.J.S.u...v.Z.b.b.i.i ; i x m p p B m p s V B u w N j s 2 3   d G m y.g.d.d.g.u.2.) :.O.T ",
"q.M.v.M.J.J.L.K.v.>.k.N.b.b.y.w < i s j a e m l i w B m e q x a s : e % j G m g.j.s.d.d.t.=.X.+.` F ",
"j.Z.Z.Z.D.D.D.H.c.X.d.M.z.l.j.v & y g h y w n n u y n l 9 5 u y u > 3 . h +.N h.h.m _ y.u.<.=.) ( F ",
"M.D.D.J.J.A.D.D.c.T %.e.u.;.#.p > y k b y p N B y s n b 9 9 z d a - 3   q T C l.k.8.0.y.q.,.) { ` K ",
"C.D.H.J.K.A.H.B.f.G X.s.0.=.O.t 6 y d b u a n n u g n n 5 q b h a , 3 - s V m M.x.n.d.2.i.q.@.@.=.F ",
"c.C.Z.B.c.c.A.n.>.n D <.=.;.@.0 & y h b q g B b 6 u n n 5 6 h j p , h w z ( Z D.n.M.d.w.s.u.0.<.=.( ",
"h.b.n.b.n.c.D.C.^ m Z G G ( G 0 < y d j 0 p b b q u b z 5 6 j b p , a 4 } c.#.H.C.S.z.q.g.u.1.=.X.` ",
";.p.j.x.x.j.N.z.@.j B F v B m 6 4 y s h 0 y m b y u z b 6 y h j u > p < T B.8.J.C.S.z.g.h.g.s.t.1.O.",
"f.d.x.l.l.j.z.v.8.j x N k b z ; ; 0 w w 0 8 a e 6 8 u u 6 y u w 0 : u 1 N n.d.S.V.N.j.z.z.z.z.g.u.$.",
"t.d.h.j.j.l.c.c.=.j j N j d e * ; 0 8 e 8 8 0 i 5 > 3 8 > 6 y 9 3 & 0 > B d.$.V.M.b.M.b.b.c.c.l.d.1.",
"=.2.x.x.h.j.b.b.,.j x m k k l * 0 w 0 i q 0 w k p 1 y i 8 0 i 8 0 & 8 $ C 3.G n.h.j.z.z.k.h.u.,.u.:.",
"t.j.n.M.7.0.z.z.O.F _ F K N m e 5 w 3 w 3 w 0 y q 4 8 i 8 4 8 * 4 * 1 $ n ` m c.p.g.h.h.j.d.u.O.:.T ",
":.j.x.x.i.e.u.6.Z m B D D b e , ; 3 4 6 < 0 q w % 1 0 8 > < 1 * > % > + v =.p.l.a.k.l.j.d.s.t.8.t.X.",
"2.d.u.7.e.t.a.>.R K Z Z x e 6 & 4 1 3 4 ; 1 q 4 O ; w 6 % - 4 2 & o 2 O u X.$.e.u.s.d.d.u.7.=.{ 8._ ",
"L O.| ) #.1.h.s.O...J D m r t 4 2 3 4 2 1 4 6 6 1 3 4 1 2 < 4 1 : & < % Z s.=.2.2.$.2.p.7.$.o.X.%.T ",
"d z Z Y +.&.u.c.c.a.c.W n u e @   X o X O # # % & ; % & ; < < 1 2 2 1 4 ` h.3.7.p.] 2.p.:.X.F L T Z ",
"9 9 9 k g c C F +.C | C x t ;         O & % $ O $ O % O o         o X & ` d.T >.7.] ..7.P n z z k s ",
"u g z z f f p p q f w f 0 - % - % : : : - & & & - & & & & * & O o       n Z h F L n n L C n z h a w ",
"D ` O.o.{ ^ W ( ( R I ^ F D { ( F G F Z m m v k l p r w 9 2 2 2 < - O   O 3 < < 3 ; 3 6 u n h w 8 2 ",
"C T W ( { { ` X.X.X.#.o.=.>.>.o.O.o.o.#.#.o.O.%.%.%.O.` T T T Z M m v s w 6 w 0 6 2 > < > 2 2 2 2 & "
};
