/* XPM */
static char *c5b1cb9aba1d4003dfb87e1b678c4147kJDd4dRSsnPXyGZQ[] = {
/* columns rows colors chars-per-pixel */
"50 50 199 2 ",
"   c #010101",
".  c #090502",
"X  c #0B0905",
"o  c #070908",
"O  c #0E0E09",
"+  c #050708",
"@  c #170E05",
"#  c #0F110E",
"$  c #14110C",
"%  c #1C190E",
"&  c #1A150E",
"*  c #141510",
"=  c #181611",
"-  c #1C1A13",
";  c #211B0D",
":  c #221D14",
">  c #231F19",
",  c #252216",
"<  c #26221B",
"1  c #2B251B",
"2  c #2D281E",
"3  c #2B2316",
"4  c #312A1C",
"5  c #36311E",
"6  c #2B2720",
"7  c #2D2A21",
"8  c #332E24",
"9  c #353024",
"0  c #3A3325",
"q  c #3B352A",
"w  c #3A362C",
"e  c #433C2D",
"r  c #453D2A",
"t  c #443D31",
"y  c #4D432F",
"u  c #4C4434",
"i  c #4F473A",
"p  c #4F4838",
"a  c #464032",
"s  c #524534",
"d  c #544A35",
"f  c #584D36",
"g  c #554D3B",
"h  c #5A4D3C",
"j  c #57503E",
"k  c #5A513D",
"l  c #61533D",
"z  c #564D40",
"x  c #584F41",
"c  c #575143",
"v  c #5B5341",
"b  c #5C564A",
"n  c #5F5A4E",
"m  c #625643",
"M  c #655943",
"N  c #695C45",
"B  c #605748",
"V  c #635A4C",
"C  c #6A5E4B",
"Z  c #635E51",
"A  c #6D624B",
"S  c #6A6149",
"D  c #72644C",
"F  c #74694F",
"G  c #78684D",
"H  c #666155",
"J  c #6C6253",
"K  c #6D6858",
"L  c #726552",
"P  c #746A55",
"I  c #7A6B54",
"U  c #746C5A",
"Y  c #7A6E59",
"T  c #7D725B",
"R  c #7A7258",
"E  c #7E7663",
"W  c #806F55",
"Q  c #84755C",
"!  c #8B7A5F",
"~  c #85745A",
"^  c #837762",
"/  c #847A63",
"(  c #8B7D64",
")  c #807768",
"_  c #857C6A",
"`  c #8B7E6B",
"'  c #887763",
"]  c #907F65",
"[  c #868064",
"{  c #8D8166",
"}  c #8B826C",
"|  c #928266",
" . c #93846C",
".. c #98876D",
"X. c #95896E",
"o. c #9C896E",
"O. c #878070",
"+. c #8C8472",
"@. c #928672",
"#. c #938A75",
"$. c #9B8C72",
"%. c #948C7A",
"&. c #998C7A",
"*. c #9D917D",
"=. c #9D9276",
"-. c #A08E76",
";. c #A29176",
":. c #A4947B",
">. c #A9967B",
",. c #979080",
"<. c #9D9481",
"1. c #9F9888",
"2. c #A29683",
"3. c #A49985",
"4. c #AB9C82",
"5. c #A49B8A",
"6. c #AA9E89",
"7. c #ADA38C",
"8. c #B7A68A",
"9. c #B4A98E",
"0. c #B9A98E",
"q. c #B8A78D",
"w. c #ACA494",
"e. c #AFA997",
"r. c #B5A994",
"t. c #BBAC92",
"y. c #B5AC9B",
"u. c #BBAD99",
"i. c #BEB494",
"p. c #BFB997",
"a. c #BAADA0",
"s. c #C0AF95",
"d. c #C1B396",
"f. c #C3BB97",
"g. c #C2B39A",
"h. c #C4B99C",
"j. c #C5B5A1",
"k. c #C8B6A2",
"l. c #C4B8A0",
"z. c #CABDA5",
"x. c #CEBEAA",
"c. c #C5BDB0",
"v. c #C7C1A3",
"b. c #CBC2A5",
"n. c #CBC0A9",
"m. c #D3C3AC",
"M. c #D2C9AF",
"N. c #CFC7B0",
"B. c #D3C7B2",
"V. c #D3CAB4",
"C. c #DACDB5",
"Z. c #D6CEBB",
"A. c #DACDB9",
"S. c #DBD1BD",
"D. c #D7D1B7",
"F. c #E1D7BC",
"G. c #D7CFC2",
"H. c #DDD4C3",
"J. c #DDD5C9",
"K. c #E2D6C4",
"L. c #E4DDCD",
"P. c #ECDECB",
"I. c #E0D6C6",
"U. c #E3DCD2",
"Y. c #E9DFD7",
"T. c #E6E2CD",
"R. c #ECE5CB",
"E. c #E6E3D4",
"W. c #E9E2D5",
"Q. c #E6E2DB",
"!. c #ECE5DC",
"~. c #EEE9DC",
"^. c #EAE9D7",
"/. c #F5EDDD",
"(. c #EFECE3",
"). c #EFEDEE",
"_. c #E9E4E0",
"`. c #F0E7E0",
"'. c #F1ECE3",
"]. c #F3EFEB",
"[. c #F8EEE2",
"{. c #F4F1E5",
"}. c #FAF3E6",
"|. c #F7F3E8",
" X c #F7F3EA",
".X c #F5F1EA",
"XX c #FAF5EC",
"oX c #FFFDEE",
"OX c #FFFCED",
"+X c #F1EFF2",
"@X c #F6F5F4",
"#X c #F8F5F1",
"$X c #FDFCF4",
"%X c #F7F9FC",
"&X c #FFFFFA",
"*X c #FFFEFB",
"=X c #FFFEFA",
"-X c #FFFEFE",
";X c #F7F7F8",
/* pixels */
"2 w t t i k g g f f f f j g j g g g z z g z z z z z z z z z z z d h h h d h h m t x h v z u a w w 8 ",
"7 9 q q a d k k d f k k g g k b j c x x c j z x x x x x x x x x x h d h h h h h h m h t i t u w 8 4 ",
"< 8 8 q q y d k k k f g k k j p z g g g g g j j z g z g z g g h d h m v h h h v h m x x i t q 8 7 < ",
"- > 8 q r y u y d f k k k j j c h h g x j j j j g h g k g h g z v x h s t s h m x m s t e 0 w 8 1 : ",
"= - 7 0 0 y j d k f d d j c j g c k k k k j k j k j k k v j k c z g i x B M h d t h i x i q 8 2 > - ",
"& & < 2 5 g A S S N k f d g c c p g p p j p p p j p p p g p g g i z x g s r s d L I L U V q < : = * ",
"# $ : : 2 m ^ L #.:.6.+.K v b K H Z H H Z Z Z Z S Z H n H Z V Z Z Z C Z C ^ &.7.:.` Y U x 7 < 7 * # ",
"X O : ; 4 C _ A N S E 7.H.[.XX{.|.|.{.|.|.|.|.|..X|..X|.|. X X X#X.X[.[./.A.6.Q A C C ) Z 8 ; = * O ",
"X X O : 3 C -.m ` ` ' m 1.OX$X$X*X*X*X*X*X*X*X*X&X&X*X*X*X*X*X*X;X$X$XOXOX6.k ~  .@.V ` Z : > # + o ",
"+ X $ ; 3 V ' m 4.4.r.U 3.$XXX$X*X*X*X*X*X*X*X*X-X-X*X*X*X*X*X*X&X=X$XOXOX*.D h.2.&.m ) V 7 : X + o ",
".   $ $ 4 C ' I W ` u.P ,.$XXX=X*X*X*X*X*X*X*X*X-X-X-X-X*X*X*X*X-X-X$X$XOX*.M d.( | D ` b 8 $ O   + ",
"+   O . 4 J ' ' ' Q ' h %.$X$X*X*X*X*X*X*X*X*X*X-X-X-X-X*X*X*X*X*X*X=X$XOX3.k ~ ! / ^ _ b 6 X X     ",
"+   . . 3 C I ~ -.4.6.<.x.#X#X=X*X*X*X*X*X*X*X*X-X-X-X-X*X*X*X*X-X%X-X$X|.p.:.8.>. ./ U V 6 O       ",
"      . 1 B I G G ` 6.a.G.}.$X=X*X*X*X*X*X*X*X*X-X-X-X-X*X*X-X-X%X%X-X$XOXD.7.>.| W Y P n < O       ",
"      . 4 C ' D W I C m w.$X=X;X-X-X-X-X-X-X-X-X-X-X-X-X-X-X-X-X-X-X*X$XOXw.S D G F N _ b < +       ",
"  +   + 1 C ` C ] 4.4.L 5.;X=X=X-X-X-X-X-X%X-X-X-X-X-X-X-X-X-X-X%X*X*X$X$X*.M 8.;. .N #.b 8         ",
"        < V @.l ..>.t.L 1.$X&X&X&X-X-X*X*X*X*X*X*X*X*X*X*X*X*X-X%X-X-X$XOX<.D 0.:.$.S } Z <         ",
"        < V +.N ..>.0.D 3.oX$X&X-X-X*X*X*X*X*X*X*X*X*X*X*X*X-X-X-X-X*X$XOX3.F 0.:.o.M } Z < .       ",
"        < n ` B o.>.0.F 3.$X=X&X*X*X*X*X*X*X*X*X*X*X*X*X*X*X-X-X-X-X=X=XOX3.D 0.;.#.M O.Z <         ",
"        < n @.M ..;.0.D 5.$X=X&X*X*X*X*X*X*X*X*X*X*X*X*X*X-X-X-X-X*X*X$XOX<.A 9.;.X.M } Z :         ",
"        > n +.B ..;.8.D 3.OX$X=X*X*X*X*X*X*X*X*X*X*X*X*X*X*X*X-X-X-X-X$XOX<.D 0.:.$.M O.H :         ",
"        6 n +.B $.>.q.D 3.$X=X&X*X*X*X*X*X*X*X*X*X*X*X*X*X*X-X-X-X-X&X$XOX3.F i.:.$.N +.H ,         ",
"        > n ` M o.>.q.D 6.$X=X&X*X*X*X*X*X*X*X*X*X*X*X*X*X*X-X-X-X-X*X$XOX3.F 9.:.X.m } Z <         ",
"        6 V @.l ] o.4.N <.$X$X=X*X*X*X*X*X*X*X*X*X*X*X*X*X-X-X-X-X*X*X$XOX=.M >.$. .l } n ,         ",
"    .   2 H E E W ~ ] ] u.$X$X=X*X*X*X*X*X*X*X*X*X*X*X*X*X*X*X-X-X%X*X$XOXr.! [ ! Y R O.Z 7         ",
"    +   7 H E ` ..>.s.g.A.$X#X;X*X*X*X*X*X*X*X*X*X*X*X*X*X*X-X-X*X*X*X#XOXS.g.i.>.$. .E V <   .     ",
"        6 b U T ] ]  .~ u.{.=X=X*X*X*X*X*X*X*X*X*X*X*X*X*X*X-X-X-X%X*X$X}.u.{ ( { / ^ P V > .       ",
"        6 b U D G G ~ l 2.XX=X&X*X*X*X*X*X*X*X*X*X*X*X*X*X-X-X-X*X*X*X$XOX#.f ~ G D C U V < .       ",
"        6 H _ S ! o.g.I 6.$X$X@X*X*X*X*X*X*X*X*X*X*X*X*X*X*X*X-X%X*X&XXXOX5.I g.;.| N _ n 6         ",
"        6 H +.m >.>.0.N %.$X=X&X*X*X*X*X*X*X*X*X*X*X*X*X*X*X-X-X%X-X;X$XOX=.S 9.4.$.M +.V 8         ",
"        2 n +.m ! ! ( Y 7.OX&X%X*X*X*X*X*X*X*X*X*X*X*X*X*X*X-X-X*X-X*X$XOX6.F ! ( ` N } Z 7         ",
"      X 8 H #.L W  .$.u.Z.{.&X*X*X*X*X*X*X*X*X*X*X*X*X*X*X*X*X-X*X%X*XXX^.Z.z.=.! { A _ Z 1 X       ",
"  O X . 5 S [ [ X.:.7.7.e..X-X+X*X*X*X*X%X*X*X*X*X*X*X*X-X*X*X*X%X*X*X-X}.y.#.t.7.{ @.} B 8 &   X X ",
"= - % ; 5 f S Q [ X.R <.).-X).-X*X-X*X*X%X*X*X-X*X%X*X%X-X-X*X*X*X*X;X;X$X^.r.P X.[ Y K B 4 @ 3 - - ",
"< , % , q k L ! [ F 1.^.$X;X*X%X-X=X=X=X%X;X;X;X;X;X%X*X=X;X;X-X%X@X;X=XOXOX^.<.K [ E U B 0 : 4 < 1 ",
"7 5 4 5 v E [ / R e.^.$X$X;X-X@X@X@X@X@X;X;X$X$X;X;X;X#X@X$X;X@X;X].=X$X(.OX$X/.3.[ O.+.U g e 4 8 0 ",
"y g j b T #.+.) w./.$X`.#X$X].@X@X#X#X#X#X#X#X#X#X#X#X#X#X#X#X#X=X.X@X@XOX(.|.OX X5.E +.` U Z v t t ",
"A F L R ) _ #.w.[.~.XXXX!.'.=X]..X.X]. X X]. X X X X].]. X X X X.X.X(.{.$X{.Q..X$XQ.e.O.+._ K U P P ",
"T R I R ) #.a.U.}.`.`.XX.X!.!. X'.(.'.'.`.'.'.`.'.'.[.'.'.'.[.'.^.(.(.^.(.).(.@XQ.$XE.e.%._ R P U U ",
"R Q Q Q &.u.J.XX!.!.Q.Q.~.!.!.!.!./.!.~.!.~.!.~.!.~.!.!.!.!.!.!.~.^.^.(.^.Q._.Q.'.Q.(.^.y.+.[ T ^ Q ",
"] ] ' ] r.K./.U.Y.Y.Y.Y.Q.W.W.W.W.W.W.W.W.W.W.W.W.W.W.W.W.W.W.W.T.T.E.E.Q.Q.Q.Q.Q.Y.E.^.L.r.[ [ ( { ",
"-.] ..q.A.P.P.L.U.Y.L.U.L.U.L.L.L.L.L.L.L.L.L.L.L.L.L.L.L.L.L.L.T.L.T.U.U.U.U.U.U.W.T.J.T.D.9.{ ....",
"-.-.8.C.P.K.F.K.K.J.J.H.H.H.H.H.H.H.H.J.H.H.H.H.H.H.H.H.H.H.H.H.D.H.H.H.G.J.J.J.J.J.J.G.F.R.D.7.:.;.",
">.s.m.F.A.A.S.S.A.Z.Z.Z.A.A.A.Z.Z.Z.Z.Z.Z.Z.Z.Z.Z.Z.Z.Z.Z.Z.Z.Z.D.D.Z.Z.Z.Z.G.G.G.N.Z.S.V.S.F.M.8.4.",
"r.x.A.m.n.M.M.M.M.M.M.m.m.m.B.B.B.B.B.B.V.B.B.N.B.B.B.B.B.B.B.N.B.B.B.B.B.B.B.B.V.v.B.A.b.b.V.C.h.h.",
"x.x.x.x.b.b.b.v.b.b.b.x.n.x.m.x.n.n.n.n.x.n.n.x.n.n.n.n.x.n.n.n.x.x.x.x.x.n.v.n.v.z.n.m.b.m.m.h.m.z.",
"x.j.k.k.v.f.f.f.f.f.h.h.k.g.h.h.j.j.l.l.a.l.l.l.l.l.l.l.h.l.k.k.k.k.k.l.j.h.l.h.h.l.h.g.z.z.h.g.h.k.",
"u.g.k.g.i.0.i.f.d.d.d.d.d.g.g.g.g.i.g.p.g.h.g.i.g.g.i.g.g.g.g.g.g.g.g.g.g.i.i.p.p.h.g.g.g.s.s.x.t.s.",
"r.q.q.q.q.q.q.0.s.8.8.s.8.8.s.8.s.8.8.s.8.8.s.8.0.0.q.0.0.t.q.0.t.q.t.q.q.s.8.8.s.8.8.0.s.8.s.8.q.s.",
"q.q.8.8.q.8.8.8.8.8.8.8.8.8.8.8.8.8.8.8.8.8.8.8.8.8.8.8.8.8.8.8.8.q.8.8.8.8.8.8.8.8.8.8.8.8.8.8.8.8."
};
