/* XPM */
static char *_19b841fa09143b8ca97bf470a310a67jfXm0yd1auPqmJ5X[] = {
/* columns rows colors chars-per-pixel */
"50 50 240 2 ",
"   c #BA292C",
".  c #B6332D",
"X  c #A73635",
"o  c #B93C3B",
"O  c #B63738",
"+  c #AD2B33",
"@  c #D72217",
"#  c #E5301F",
"$  c #C81928",
"%  c #C7282C",
"&  c #D32C2D",
"*  c #DE2E2D",
"=  c #D92826",
"-  c #CF302D",
";  c #DB332C",
":  c #DE382C",
">  c #CB2C33",
",  c #CB2D3A",
"<  c #C72A36",
"1  c #DB2D33",
"2  c #D32C3A",
"3  c #D72A37",
"4  c #C53132",
"5  c #C93231",
"6  c #CB3A3B",
"7  c #C5343A",
"8  c #D33336",
"9  c #DD3333",
"0  c #D5343B",
"q  c #DC323A",
"w  c #D53B3C",
"e  c #DC3A3B",
"r  c #D53A36",
"t  c #E62D25",
"y  c #E62E2D",
"u  c #EB2E2C",
"i  c #EB2726",
"p  c #F3262C",
"a  c #F12D2D",
"s  c #F02224",
"d  c #E3332D",
"f  c #EA322C",
"g  c #EB3A2D",
"h  c #F2312E",
"j  c #EF2533",
"k  c #E62E33",
"l  c #EB2D34",
"z  c #E52D3C",
"x  c #EC2E3A",
"c  c #F32C34",
"v  c #F92E36",
"b  c #F32C3C",
"n  c #FE2A3B",
"m  c #FA2637",
"M  c #E43334",
"N  c #EB3234",
"B  c #E43931",
"V  c #E3333B",
"C  c #EA323A",
"Z  c #E63A3C",
"A  c #E83C32",
"S  c #F33234",
"D  c #F3333C",
"F  c #FA393C",
"G  c #B14133",
"H  c #A7443E",
"J  c #CC413E",
"K  c #F24439",
"L  c #BC3543",
"P  c #B93D45",
"I  c #C63B46",
"U  c #DC3443",
"Y  c #DC3A42",
"T  c #D53E45",
"R  c #EC3441",
"E  c #E13C42",
"W  c #E63947",
"Q  c #FC3A41",
"!  c #F43743",
"~  c #E73F50",
"^  c #F72C40",
"/  c #9E4C4B",
"(  c #9E5A57",
")  c #A64546",
"_  c #B74646",
"`  c #B8514C",
"'  c #AA5957",
"]  c #B85952",
"[  c #A6534B",
"{  c #AA635D",
"}  c #BB695E",
"|  c #AD6D69",
" . c #B5766F",
".. c #CC4346",
"X. c #C64948",
"o. c #DF454C",
"O. c #D74749",
"+. c #D54955",
"@. c #C65C5B",
"#. c #D5555C",
"$. c #D8595C",
"%. c #C94955",
"&. c #E44548",
"*. c #E24D58",
"=. c #EB575D",
"-. c #D75F68",
";. c #E45D65",
":. c #E95762",
">. c #CD6467",
",. c #D96666",
"<. c #D3716E",
"1. c #D56873",
"2. c #DB777B",
"3. c #C27E75",
"4. c #E1666A",
"5. c #E47778",
"6. c #FF7173",
"7. c #B8867F",
"8. c #D8807F",
"9. c #C28479",
"0. c #F38A77",
"q. c #E17C84",
"w. c #BD978E",
"e. c #C28B84",
"r. c #DB8785",
"t. c #CE9E97",
"y. c #C39E96",
"u. c #D29990",
"i. c #EA8B8D",
"p. c #E68789",
"a. c #FC888C",
"s. c #FC878D",
"d. c #FC8F9B",
"f. c #FC8C95",
"g. c #E99A98",
"h. c #F59296",
"j. c #FE9094",
"k. c #F6979B",
"l. c #E88C91",
"z. c #C6A397",
"x. c #C9A79E",
"c. c #EEA38E",
"v. c #EAA59A",
"b. c #F0A59F",
"n. c #FF8DA1",
"m. c #EF9DA7",
"M. c #D3ACAC",
"N. c #DCBDAB",
"B. c #D9B8A9",
"V. c #D5B7B5",
"C. c #E9A2A0",
"Z. c #EDAAA5",
"A. c #EAA7A6",
"S. c #F4ACAB",
"D. c #F7A7A6",
"F. c #FEAEB4",
"G. c #EAB9B5",
"H. c #FFB7B2",
"J. c #FEBCBB",
"K. c #F8B8BD",
"L. c #E4B2AB",
"P. c #D6C1BE",
"I. c #E4C4BC",
"U. c #E1C1B6",
"Y. c #FFC0BB",
"T. c #FFC7B6",
"R. c #FFBFC2",
"E. c #F4BCC5",
"W. c #E9CDC5",
"Q. c #E5CACA",
"!. c #FFC4C4",
"~. c #FFCCCC",
"^. c #F9C7C7",
"/. c #EADCCE",
"(. c #E4D5C9",
"). c #FAD5CC",
"_. c #F6D8CE",
"`. c #EDCFD1",
"'. c #FFD4D4",
"]. c #F5DCD4",
"[. c #FCDAD5",
"{. c #F5DCDB",
"}. c #FFDBDA",
"|. c #F3D5D2",
" X c #EDECDC",
".X c #ECE2D8",
"XX c #FFE2DC",
"oX c #F3ECDA",
"OX c #F3E3D9",
"+X c #FFF8DF",
"@X c #E9E1CE",
"#X c #F9DFE1",
"$X c #FDE5E3",
"%X c #FFEBE4",
"&X c #FEEEEB",
"*X c #F2EEE2",
"=X c #EBF5E8",
"-X c #FCF3E4",
";X c #FCF4EC",
":X c #FEFBED",
">X c #F5F5E9",
",X c #ECFCF4",
"<X c #EDFFFC",
"1X c #FFF5F3",
"2X c #F4FDF5",
"3X c #FEFDF4",
"4X c #F6F3F9",
"5X c #FFF6FC",
"6X c #F5FFFD",
"7X c #F8FFFB",
"8X c #FAFFFA",
"9X c #FFFFFB",
"0X c #FEFEF9",
"qX c #FFF9FF",
"wX c #FFFBFF",
"eX c #FFFAFF",
"rX c #FFFAFD",
"tX c #FBFFFD",
"yX c #F9FFFF",
"uX c #F8FFFF",
"iX c #FBFFFF",
"pX c #FBFFFF",
"aX c #F9FEFD",
"sX c #FFFCFD",
"dX c #FCFFFD",
"fX c #FFFFFD",
"gX c #FEFFFD",
"hX c #FFFCFF",
"jX c #FFFDFF",
"kX c #FFFDFF",
"lX c #FCFFFF",
"zX c #FDFEFF",
"xX c #FFFEFF",
"cX c #FEFFFF",
"vX c white",
"bX c #FEFEFE",
"nX c #FDFDFE",
"mX c #FEFEFE",
"MX c #F4F5F4",
"NX c #EEE7E1",
/* pixels */
"hXhXhXuX8X2X2X8X8XhXhXpXhXuXuXpXhXhXhXpX7X6X<X<X<X6XuXpXhXhXqXqXqX9XhXhX9XpX9XhX9XhXhXhXhXpXuXuXpXhX",
"hXhXpX8X8X8X2X3X9XhXhXhXhXpXuXpXhXhXhXhXpX8X8X8X8X2X8XhXhXhXhXhXhXhXhX9X9XpXpXhXhX9XhXhXhXhXpXpXhXhX",
"hXhX9X3X3X3X3X3X9X9XhXhXhXhXpXpXhXhXhXhXqXhXqXqXqXqXqXqXhXhXhXhXhXhXhXhXhXpXpXhXpXhXhXhXhXhXhXhXhXhX",
"9X9X3X:X:X:X:X3X9X9XhXhXhXhXhXhXpXhXhXhXqXqX5XqXqXqXqXhXhXhXhXpXhXhXhXhXhXhXhXpXpXpXhXhXhXhXhXhXhXhX",
"3X:X*X XoX-X:X3X9X9XqXqXhXhXhXhXpXpXpXhXhXhXhXhXhXhXhXpXpXuX6X6XuXuXpXhXhXhXhXhXhXhXhXhXhXhXhXhXhXhX",
"3X-XoX@X@XoX:X3X3XhXhXhXhXhXhXhXpXpXpXpXpXpXhXpXhX8X8X8X8XuXuXuXuXuXuXpXhXhXhXhXhXhXhXhXhXhXhX9XhXhX",
"3X:X-XoXoX+X:X:X9XhXhXhXhXhXhXhXpXpXpXpXpX0X8X3X>X:X:X3X3X3X3X9XpXuXuXpXpXhXhXhXhXqXhXhXhXpXuXuXpXhX",
"3X3X3X:X:X3X3X3XhXhXpXpXpXpXhXhX9X0X1X1X;X%X$XXX[.XXXXXXXXXX%X&X9X9X9X8XpXpXhXhXqXqXqXqXhXpX<X6XpXhX",
"3X3X3X3X3X3XhX8XpX6X6XuXpXpXaX0X;X%X$X).R.S.k.i.p.p.p.i.h.D.Y.~.$X$X1X9X9X7XpXhXqX0XqXqXhXuX<X6XpXhX",
"9X3X9X3X3X9XhXpX6X6X<XuX4XqX&X&X[.J.D.p.5.4.;.:.*.*.*.#.#.$.4.2.l.K.'.$X;X2X2X8XhXhXqXhXhXpX7X6XpXhX",
"hX9X9X9X9X9XpXuX6X<XuXMXqX&X$XJ.h.5.,.+.O.T U q C R R Z V E &.o.;.-.l.Y._.-X3X,X8XpXhX9XhXhXhXpXhXhX",
"hXhXhXhXhXhXpXuXuXuX4XqX$X}.C.p.$.o.Y w E W M k l l l b C N D C Z o.X.>.Z.).OX:X2X7X8X8X9XhXhXhXhXhX",
"hXhXhXhXhX9XhXpXpX4XqX}.~.l.4.X.&.Z 9 ; 9 B B B M d N l j j c j y 1 &.O.` r.^.}.:X8X8X7X8XhXqXqXhXhX",
"pXhXhXhXhXhXhXhXhX0X#X~.p.4.w Z M N N M y d y M A M N f N l c N u f y 9 Y I 2.R.XX1X7X6XuXhXqXhXhXhX",
"pXhXhXhX9X9X9X9X1X%X~.r.$.r D S y y N N S N f u u i y y M M M B K @ i Q ^ 3 o.q.K.{.8X6X6XpXhXqXhXhX",
"pXpXhXhXhXhX9X3X$X~.g.#.6 Z S i l f u u u u a a S u f N M M 9 ; - A a i p ^ U L g.^.;XuXuXpX9XhXhXhX",
"8X9XqXqXpXuX,X;X$Xk.;.&.V 9 9 k d k y y k f y y u l y k y d k 9 r > N h # f t w P m.`.hX2XhX3X9XhXhX",
"3X9XhXqXpXuX,X;XJ.5.o.k V V q Z M N N N N N N N N N N N N N N M U 0 D u # g d B , 1.E.NXhXMX9X3X9XhX",
"9X9XqXhXpXpXMXXXg.$.&.l D l k z k k k k k k l M k k k k k k k k q x v s # g t k 2 L m.Q.0X8X9X9XhXhX",
"9XhXhXhXhX4X&X!.,.6 ! i S D b b x N C N N N N N N N N C C N N C l v n m h h u N R , 1.K.>X7X6XpXhXhX",
"hXhXhXhXhX;XXXD.=.E Q p c c m m S N N N N N N N N f N N N f N c b n m m D V V C ^ U I D..X<X6XuXhXhX",
"qXhXhXpXpX$X'.p.o.9 = d - 5 2 < 5 5 5 5 5 5 5 5 5 5 5 5 5 5 5 5 8 & 3 2 , 7 6 < ^ m , q./.,XpXpXhXhX",
"qXqXhX8X9XOX~.<.O.r . 0.c.v.A.A.C.C.C.C.v.C.C.C.v.C.C.C.C.C.v.v.v.c.v.C.C.C.v.,.2 ^ 2 @.I.,X9XqXhXhX",
"qX9XpX2X9XOXT.>.O.J G T.+X:X1X0X1X1X1X1X1X1X1X1X1X1X0X1X1X1X1X1X:X:X:X1X;X2X%Xr.< x q X.U.2X4X0XhXhX",
"hX8X6X2X9X].F.#.E E o Y.-X3XhX5X1X3X1X1X1X3X1X1X1X3X1X1X3X1X3X3X:X:X9X0XqX&X1Xr., D M G B.=XhXqXhXhX",
"8X7X<X2X3X[.J.+.~ q O J.:X3XhXhXhX9X9X9X9X9X9X0X9XhX0X9X9X9X9X9X3X3XhXqXqX5X1Xr.5 C 9 J B. XqXqXhXhX",
"7X7X<X6XhX|.R.%.~ 2 O J.:X1XqXqXhXpXhXpXhXpXqXpXhXhXpXhXhXhXqX8XMX3X5X&XhX5X1X2.4 Z - ` B. XqXqXhXhX",
"uXuX6X6X9X`.~.%.~ q ..H.&X;X5X5X5X0X5X5X5X5X5X5X5X5X5X5X5X5X5X5X1X1X5X5X1X&X$Xa., V 4 ] N.:XpXqXhXhX",
"uXuX6X6X9X{.^.#.U z z 6.j.d.n.n.d.h.h.h.h.h.h.h.h.h.h.h.h.h.h.h.k.h.f.d.d.s.s.=.C q . } U.1XhXqXhXhX",
"pXpXuX6XpX$X^.5.w N = * 5   U , < 4 4 4 5 5 4 4 4 4 4 4 4 4 4 4 6 4 % 3 > % M = x 8 X 3.W.9XpXuXpXhX",
"qXqXqXuXpX1X^.k.J Z g : ; 9 Z C V M M M M M M M M M M M M M M M e 9 N S ; d F v l 5 H u.].qXpXuXhXhX",
"5XqXqXpX6X8XQ.H.o r B g d d N y y f f y u f f a u f a f f u y d ; d f h t f h i N 4 [ B.$XhXpXuXhXhX",
"5XqXpX<X<X7X$X!.1.T $ ! C t g = ; d M d f f f f u f f t f f f d B : d f h a s j 8 o  .`.1XpXuXuXpXhX",
"qXhXpX6X<X6X>X'.F.L U R j A g ; M k M d f d f f f h f h f N d d ; : d f p c S Z . ' t.OXhXpXpXpXhXhX",
"9XhXpX6X6X6X1X%X~.q.I U V y h h x x x x l l N N N l S l x l l k d B S a c v M o X 9.W.:XhXhXqXqXhXhX",
"9XhXpXuX7XpXhX1X^.R.@.P 0 N c v m b b b x x z N V N k N C x x x M f c c c C 5 X { B.-X3XhXhX5XhXhXhX",
"7XpXpX8XpXpX9X3X1XI.L.` ..q ! j b b b x C C V M M M M M C k x x N j c ^ C , _ ' z..X3X9XhXqXqXhXhXhX",
"7XuXpX8X8XhXpX8X9X3XI.A._ I $ ! x x x x M N M M M M M M M N M N C N x z < X ' w./.:X9X1X0XqXhXhXhXhX",
"7X7XhXhXhXhXpXuX,X3X1XG.S.P T U k k k f N f f f f f f f N f N l C k 2 7 ) { y.(.:X3XhXqX5XhXhXpXhXhX",
"8X8XhX9XhXhXhXuX8X,X0X1XW.F.1.+ 6 ; M M f N S a u a u f f d d M q , O ) | x..X9XhX1XqXqX0XhXuXuXpXhX",
"9X9X9XhXhXhXhXpXpX8X9X3X1X}.G.l.X.5 % ; M C c v p p c S C N 1 &   O ] e.I.>X3X9XhXhXhXhXhXpXpX7XhXhX",
"9X9XhXhXhXhXhXhXhX8X8X9X3X1XXX).v.2.@.G .   % > 1 3 >       O o @.3.L.].;X8X8XhXhXhXhXpXuXuXpX9XhXhX",
"9X9XhXhXhXhXhXhXhXhX8X9X9X8X8X3X>X@XV.z.w.| ' ' ) / / / ' | e.z.G.|.;X3X3X8XhXhXhXhXuX6X6XuXhX9XhXhX",
"9XhXhXhXhXhXhXhXhXhXhXhXuX7X<X,X<X,X,XMXOXQ.V.M.M.M.M.V.P.(..X>X3X3X3X2X8X9XqXqXhXpX6X<X6XpXqX9XhXhX",
"hX9XhXhXhXhXhXhXqXhXhXpXpXuX6X<X<X<X6XuXhX0X5X0X5X5X1X5XhXhXhXhXpXuX2X2XhXhXhX0XhXuX<X6XuXpXhXqXhXhX",
"8XhXhXhXhXhXhXhXhXhXhXpXpXuXpXpXuXuX6X6XqXpXhXhX5X0XqXqXhXhXhXpXuX6XpXhXhXhXhX9XpXuXpXpXpXhXhXhXhXhX",
"7XpXpXhXhXhXhXhXpXpXuXpXpX9X0XqXqXqXhXhXpXhX8X7X8X8XpX9XhXhXhXhXuXuXhXhXqX9X8X7X7X8X9XhXhXhXhXhXhXhX",
"pXpXhXhXhXhXhXhXpXpXpXpXhXhXhXqXqXqXhXhXhXhXhX8X2X8X8XhXhX9XhXhXpXhXhXhXhXhXpX6X8X8X9XhXhXhXhXpXhXhX",
"hXpXhXhXhXhXhXhXhXhXhXpXhXhXhXhXhXhXhXhXhXhXhXhX9XhX8XhXhXhXhXhXhXhXhXhXhXhXhXpXpX9XhXhXhXhXhXhXhXhX",
"hXhXhXhXhXhXhXhXhXhXhXhXhXhXhXhXhXhXhXhXhXhXhXhXhXhXhXhXhXhXhXhXhXhXhXhXhXhXhXhXhXhXhXhXhXhXhXhXhXhX"
};
