/* XPM */
static char *_10929ba78a342be914aec7c83625de6FOjwB7w3HbMPAfPD[] = {
/* columns rows colors chars-per-pixel */
"50 50 166 2 ",
"   c None",
".  c #3D3436",
"X  c #443D3D",
"o  c #463D40",
"O  c #4B4342",
"+  c #554B4B",
"@  c #5C5353",
"#  c #635757",
"$  c #655B5C",
"%  c #695E5E",
"&  c #7E6B5D",
"*  c #685D61",
"=  c #6D6464",
"-  c #6F6B67",
";  c #6F6868",
":  c #716765",
">  c #7F6F62",
",  c #716668",
"<  c #746C6B",
"1  c #796E6D",
"2  c #7B716F",
"3  c #7A6F73",
"4  c #777777",
"5  c #7D7372",
"6  c #7B7A7A",
"7  c #856446",
"8  c #A6794F",
"9  c #8A7161",
"0  c #827574",
"q  c #847C77",
"w  c #887976",
"e  c #847B7B",
"r  c #8A7E7D",
"t  c #A17E62",
"y  c #BC7574",
"u  c #C5696F",
"i  c #C67577",
"p  c #C27976",
"a  c #C07379",
"s  c #C97C7C",
"d  c #85827F",
"f  c #8C827E",
"g  c #92847D",
"h  c #B48C61",
"j  c #B49B7F",
"k  c #C49762",
"l  c #D5A971",
"z  c #E3AE6F",
"x  c #E7B677",
"c  c #E1B47A",
"v  c #8B8382",
"b  c #8F8987",
"n  c #8E8588",
"m  c #8F8A88",
"M  c #918583",
"N  c #958A84",
"B  c #9A8C84",
"V  c #928789",
"C  c #938B8A",
"Z  c #998E8B",
"A  c #97908F",
"S  c #9C918D",
"D  c #958F90",
"F  c #988F90",
"G  c #959391",
"H  c #9B9493",
"J  c #9D9B98",
"K  c #A89C87",
"L  c #A3938C",
"P  c #A69A8F",
"I  c #A19693",
"U  c #AF9492",
"Y  c #A29995",
"T  c #AA9C94",
"R  c #A49C9A",
"E  c #AA9E9B",
"W  c #B99E9A",
"Q  c #B2A28F",
"!  c #A2A09C",
"~  c #ABA29C",
"^  c #ABA395",
"/  c #B0A391",
"(  c #B4A49D",
")  c #B9A79F",
"_  c #A09FA2",
"`  c #A3A2A3",
"'  c #ACA5A3",
"]  c #ADA9A4",
"[  c #ADA7A8",
"{  c #B1A6A4",
"}  c #BAA7A0",
"|  c #B2A9A4",
" . c #BCACA5",
".. c #B5ADAA",
"X. c #BEA9A8",
"o. c #AFB1AF",
"O. c #B4B2AF",
"+. c #BCB1AD",
"@. c #BEB5B2",
"#. c #BDB8B2",
"$. c #BFBDBA",
"%. c #B5B4B4",
"&. c #C38384",
"*. c #C28884",
"=. c #C78789",
"-. c #C58B8B",
";. c #C49795",
":. c #CF9692",
">. c #C79898",
",. c #CB9A9D",
"<. c #CCA783",
"1. c #C5A688",
"2. c #C8AB88",
"3. c #D6B78F",
"4. c #CDA19F",
"5. c #EBBE85",
"6. c #CFA7A3",
"7. c #C3AEA6",
"8. c #C1A5A4",
"9. c #D2A6A7",
"0. c #C1B5A1",
"q. c #C2B2AB",
"w. c #CBB7AF",
"e. c #D2B0AA",
"r. c #C1B6B3",
"t. c #C4B9B6",
"y. c #CFB8B5",
"u. c #C4BCB9",
"i. c #C9BEBB",
"p. c #D3B6B2",
"a. c #D5BCB4",
"s. c #E6C082",
"d. c #EAC181",
"f. c #EDC891",
"g. c #E2C195",
"h. c #C5C0BC",
"j. c #CCC2BE",
"k. c #D4C0B6",
"l. c #D5C5BD",
"z. c #D9C6BD",
"x. c #F4D0A1",
"c. c #CEC2C1",
"v. c #CDCBC8",
"b. c #C6C3C2",
"n. c #D3C5C3",
"m. c #DBC7C3",
"M. c #D5CAC4",
"N. c #DECCC5",
"B. c #D6CECB",
"V. c #DACFCE",
"C. c #DED3CD",
"Z. c #DFD7D4",
"A. c #DFD9D6",
"S. c #DDDEDA",
"D. c #E0CDC4",
"F. c #E2D4CC",
"G. c #E2D6D0",
"H. c #E8D7D0",
"J. c #E2D9D7",
"K. c #E5DEDC",
"L. c #E7E1DF",
"P. c #EFE1DF",
"I. c #EDE9E5",
"U. c #F0E6E2",
"Y. c #F6EEEC",
"T. c #F6F1EE",
/* pixels */
"                                                                                                    ",
"                                                                                                    ",
"                                                                                                    ",
"                              6                                                                     ",
"                              <                                                                     ",
"                            + =                                                                     ",
"                            @ 3                                                                     ",
"                            @ e                                       v v n n Z                     ",
"                            # r                               v n V Z H R _ ' ' ] O.u.              ",
"                          + # r                           V C Y { @.r.r.t.i.j.h.u.$.b.v.            ",
"                          + % v v                       n R  .>.6.y.n.n.@...] ~                     ",
"                          % 1 V r                     < V t.,.=.-.m.K...J                           ",
"                          = 5 Z r                       < X.&.p 9.I.b.                              ",
"                          % 5 S V 5                       ..p.p.U.v.                                ",
"                          : 5 L Z e <                     #.j.L.S.                                  ",
"                          : 2 H I v 5 <                   ..j.I.$.                                  ",
"                            2 S T Z 0 1 4               Y ~ u.M.                                    ",
"                            2 S E I 0 1 2 5 6 q m V b d v C R Z                                     ",
"                            5 N T f < < 1 2 q m A v d 6 6 e r                                       ",
"                            2 f d O + , 5 5 A ! J G d 4 5 e ,                                       ",
"                            < f -       r V _ o.T 9 > v 6 d *                                       ",
"                              f         V Y ]  .h 8 7 > n b =                                       ",
"                              v         S J ~ 2.z x k 7 m C v                                       ",
"                                        m J Y <.5.s.l t G C F                                       ",
"                                        d G A 1.x.d.c j _ G H         [                             ",
"                                        < A G Q g.f.3.^ ` C H         [                             ",
"                                        5 d G H K / ! o.Y g F         _ E                           ",
"                                        M f d H R [ %.J v r V H     t.q.{                           ",
"                                        S M 5 2 V H Z M v V f r r H { t.+.|                         ",
"                                      < L V f 5 0 e = $ $ 1 e r w V { t.t...                        ",
"                                      f I H V 5 5 3 * + o . O 1 e M _ r.u.+.                        ",
"                                    : L I V V               o o , r I +.i.@.                        ",
"                                    Z ^ R V                   O X < Z { t.r.@.                      ",
"                                  C ] ) 8.                        O r R r.t.r.                      ",
"                                L W ;.a -.                        . $ F ..i.u.                      ",
"                              U &.y i =.e.Z.                        O v ' i.i.                      ",
"                            ( y u s :.D.F.H.F.j.                      1 R i.c.                      ",
"                        | .. .*.6.a.k.z.D.D.C.B.                      : I t.n.                      ",
"                  R ^ ( } q.0.7. . .w.k.l.M.B.                        < Z t.m.                      ",
"          M g f g g B S P T T Y T ) 7.q.r.u.                            V q.m.                      ",
"            0 f f g g g L P L L T T ^ E                                 C +.n.                      ",
"                0 r f M g B g g B                                       S r.m.                      ",
"                                                                          i.G.                      ",
"                                                                          C.U.                      ",
"                                                                          J.Y.                      ",
"                                                                          J.Y.                      ",
"                                                                          Z.T.                      ",
"                                                                          A.T.                      ",
"                                                                          S.                        ",
"                                                                                                    "
};
