/* XPM */
static char *_cd91450efe040c5b589eb3cbdce6a61DEUoYeaVPjGbhvor[] = {
/* columns rows colors chars-per-pixel */
"50 50 251 2 ",
"   c #070F17",
".  c #4B2D12",
"X  c #47333A",
"o  c #6E4703",
"O  c #7F5228",
"+  c #453343",
"@  c #5A5C4C",
"#  c #777654",
"$  c #5E6675",
"%  c #8D1F00",
"&  c #A91800",
"*  c #B91E00",
"=  c #B2360A",
"-  c #C71802",
";  c #D12A10",
":  c #814F1E",
">  c #A44902",
",  c #8F6C2A",
"<  c #C84C08",
"1  c #D76D1E",
"2  c #D16F28",
"3  c #D45729",
"4  c #877851",
"5  c #916B76",
"6  c #B8963B",
"7  c #E29E0F",
"8  c #DBA912",
"9  c #F3BA0B",
"0  c #E8A919",
"q  c #ECB619",
"w  c #FCBB15",
"e  c #FEBB1D",
"r  c #F5B71A",
"t  c #EDAD10",
"y  c #D0952E",
"u  c #D9A729",
"i  c #DDB62C",
"p  c #D9A837",
"a  c #DFB53B",
"s  c #CFA634",
"d  c #E5A525",
"f  c #E3AC2B",
"g  c #E9AA26",
"h  c #F2AD28",
"j  c #EAB528",
"k  c #FAB522",
"l  c #F4BC23",
"z  c #FBBD25",
"x  c #F3BB2A",
"c  c #FDBC2B",
"v  c #F7B527",
"b  c #E3AB36",
"n  c #E7B536",
"m  c #F3BB33",
"M  c #FDBC33",
"N  c #F7BA39",
"B  c #F5C21C",
"V  c #FCC31D",
"C  c #F8C215",
"Z  c #F5C325",
"A  c #FDC223",
"S  c #FDC42B",
"D  c #FBCB2C",
"F  c #F6C72B",
"G  c #EBC339",
"H  c #FCC433",
"J  c #F4CA35",
"K  c #FDCC33",
"L  c #FEC43D",
"P  c #F5CC3B",
"I  c #FCCC3B",
"U  c #F5C436",
"Y  c #FCD33D",
"T  c #FDD437",
"R  c #ECC32D",
"E  c #B79B52",
"W  c #B18B54",
"Q  c #BFAD5B",
"!  c #8B8B71",
"~  c #AF926C",
"^  c #AFA77D",
"/  c #B6B37A",
"(  c #938C56",
")  c #E98C4E",
"_  c #C7A744",
"`  c #D5AA49",
"'  c #DAB446",
"]  c #CDAA5B",
"[  c #C9A954",
"{  c #D6AA55",
"}  c #DCB856",
"|  c #E7B847",
" . c #F7BB47",
".. c #E6BB55",
"X. c #FFB654",
"o. c #EEAB4C",
"O. c #E99F78",
"+. c #CAAB68",
"@. c #DCBA67",
"#. c #C6A772",
"$. c #D7BA77",
"%. c #D0B071",
"&. c #E4BB67",
"*. c #F9B763",
"=. c #F0BF74",
"-. c #C0944D",
";. c #D8C65C",
":. c #ECC547",
">. c #FDCD44",
",. c #FDCC4B",
"<. c #F6C847",
"1. c #FDD243",
"2. c #FCD34B",
"3. c #FEDA4D",
"4. c #F5D549",
"5. c #E7C557",
"6. c #F3CB54",
"7. c #FDCB55",
"8. c #FDC85A",
"9. c #FDD452",
"0. c #FDDB53",
"q. c #FED35B",
"w. c #FFDB5B",
"e. c #F2D356",
"r. c #EFD34D",
"t. c #FDE154",
"y. c #DCC372",
"u. c #E8C665",
"i. c #FACC67",
"p. c #FFD562",
"a. c #FEDC65",
"s. c #FFD36B",
"d. c #F9D869",
"f. c #E5C577",
"g. c #FFDD74",
"h. c #FCD779",
"j. c #F0CF73",
"k. c #FFE370",
"l. c #687A85",
"z. c #768BA3",
"x. c #6C869D",
"c. c #919090",
"v. c #B6B090",
"b. c #93ABB4",
"n. c #ADADAD",
"m. c #A6A7A6",
"M. c #A9ADB1",
"N. c #B8BABB",
"B. c #A8B5AE",
"V. c #9F96A3",
"C. c #D7BA88",
"Z. c #C8B492",
"A. c #C6B9AA",
"S. c #D6C586",
"D. c #D2CA90",
"F. c #E9CA86",
"G. c #FDDC88",
"H. c #E7C895",
"J. c #EAD698",
"K. c #F8D796",
"L. c #EDD087",
"P. c #FFE786",
"I. c #FEE99A",
"U. c #D5C7A9",
"Y. c #CFC4B6",
"T. c #E2D3A5",
"R. c #F6DBA6",
"E. c #F7DCB5",
"W. c #E5D3B1",
"Q. c #FDE5A4",
"!. c #F8E6AA",
"~. c #FFF7A8",
"^. c #FDE7B5",
"/. c #FFF2B4",
"(. c #FEFBBA",
"). c #FFF0BC",
"_. c #E8E5B5",
"`. c #AEB5CA",
"'. c #99B6C4",
"]. c #AEC9D9",
"[. c #BBD5E5",
"{. c #B1D9EE",
"}. c #BAEBF9",
"|. c #AFE1EF",
" X c #C9C8C8",
".X c #D3CCC9",
"XX c #D4D3CC",
"oX c #D0CED3",
"OX c #D2DAD3",
"+X c #DBDBDC",
"@X c #D6D5D6",
"#X c #CBD2D1",
"$X c #E4DDCA",
"%X c #E2D9D9",
"&X c #F5DDD1",
"*X c #DCE2DC",
"=X c #D6E3DA",
"-X c #F5E7C9",
";X c #FFF5C5",
":X c #FEF4CB",
">X c #FFFCCC",
",X c #FCFAC5",
"<X c #E9E7D9",
"1X c #F6EBDA",
"2X c #EAF6DE",
"3X c #FEF5D3",
"4X c #FFFBD4",
"5X c #FFFCDC",
"6X c #FAF6DD",
"7X c #E8E5C2",
"8X c #C5D9EB",
"9X c #DBDCE3",
"0X c #C7DCF7",
"qX c #E3DDE2",
"wX c #EEDEE9",
"eX c #F0DFE5",
"rX c #C7E5EE",
"tX c #DCE3E2",
"yX c #DAE7E7",
"uX c #C4EBF9",
"iX c #C9E7F6",
"pX c #DAECF3",
"aX c #D7E8F7",
"sX c #CAF3FF",
"dX c #DBF6F9",
"fX c #DCF0EA",
"gX c #E3E5E3",
"hX c #E3ECE6",
"jX c #E4EBEA",
"kX c #ECECEC",
"lX c #E8E7E7",
"zX c #F4EBE7",
"xX c #ECF5EA",
"cX c #FFF6E2",
"vX c #FFFDE4",
"bX c #F3F2ED",
"nX c #FFFCEC",
"mX c #F7F8E9",
"MX c #EAEBF2",
"NX c #F5EDF4",
"BX c #ECF3F4",
"VX c #EDFCFC",
"CX c #E7F6FB",
"ZX c #F4F4F4",
"AX c #FDF5F3",
"SX c #F4FCF5",
"DX c #FEFDF4",
"FX c #FEF5FD",
"GX c #F5FDFC",
"HX c #FEFEFD",
"JX c #F5F4FC",
/* pixels */
"HXHXHXHXSXDXHXHXHXHXHXHXGXHXHXHXHXHXHXGXFXHXFXHXHXHXHXFXFXHXDXGXSXGXHXHXFXHXHXGXHXHXHXHXHXHXHXHXHXHX",
"HXHXHXHXSXHXHXFXHXHXGXHXHXHXHXHXHXHXGXHXHXFX6XA.cXHXFXJX&XnXHXHXSXHXHXHXHXHXGXHXHXHXHXHXHXHXHXHXHXHX",
"HXHXHXHXHXHXHXFXHXHXDXHXHXHXHXHXHXHXGXSXHX6X, . ^.cXcX~ . Z.AXHXHXHXAXAXHXHXHXHXHXHXHXHXHXHXHXHXHXHX",
"HXHXHXHXHXHXHXHXGXHXHXDXDXHXHXHXHXHXSXnXcXW o 6 #.D.C.W : O cXnXAXHXDXHXHXSXHXHXHXHXHXHXHXHXHXHXHXHX",
"HXDXHXHXHXHXHXHXGXHXHXDXHXHXGXHXHXDXvX^.#.W I.I.!.!.!.J.=., Q 3X6XAXHXHXHXHXHXHXHXDXHXHXHXHXHXHXHXHX",
"DXGXHXHXHXFXZXBXGXBXHXHXHXHXHXDXnX3XF.+.F./.!./.(./././.~.G.E +.R.5XDXJXHXHXHXHXHXDXHXHXHXHXHXHXHXHX",
"GXGXHXHXFXHXlXtXjX9XDXHXHXHXDX5X/.} ` h.Q.# @ # _./.^ # / (.~.y.] H.nXFXHXHXHXHXDXHXHXHXHXHXHXHXHXHX",
"DXGXHXHXHXFX*XOXtX@XAXHXHXHXvX(...u ,.g.( c.xXB./ / ! Y.# v.(.Q.u.[ R.vXFXHXHXDXHXHXHXHXHXHXHXHXHXHX",
"GXHXHXHXHXFXOXOX+X@XAXFXHXDX>X@.f c T ;.! dX].VXA.~ FXFXJX! E.I.P..._ I.mXFXHXHXHXHXHXSXHXHXHXHXHXHX",
"HXHXHXHXHXSXOX=XXX@XFXHXHXvXF.u v e T 6 v.'.x.B.v.U.MXb.`.M.C.G.g.q.j ' 3XDXDXHXHXHXHXHXHXHXHXBXlXHX",
"HXHXHXHXHXZX#X#X@X%XHXAXDX:X` m k k q _ b.uXl.+ W _.`.z.x.c.%.g.d.w.B 8 f.5XDXHXHXHXHXHXHXHXDX<XgXHX",
"HXHXHXHXSXhXXX<X.X%XHXnX6Xf.u z k k q s v.l.  . %.%. X[.  ! [ q.7.4.C B s Q.vXFXHXHXHXHXHXHXkX<XkXHX",
"HXHXHXHXHXkXOX#X@XlXFXvX!.` N T Y r t I C.4 4 E u.Q M.$ $ # ;.Y ,.I Z q j ..5XHXHXHXHXHXHXHX+XhXkXHX",
"HXHXDXHXHXMXoX X X%XFX6Xj.j z 9 8 8 7 0 u.W y u.e.u.! @ N.E p U U x r t S n ^.AXFXGXHXHXHXFX+XkXgXHX",
"DXHXDXDXHXwXwXZX9XVXHX;Xo.r r t q t S M <.8.4.<.r.e.` E C.)  .j m H k e A | J.vXSXGXHXHXHXNXtXhXjXHX",
"HXHXDXHXHXMX9XqXOXGXDX^.d w w z B r M M >.I 1.>.4.9.8.X.= 3 1 >.I t.L k z <.f.5XvXHXHXFXFXwXBXtXxXHX",
"GXDXDXDXHXFX%X.XSXmXvXF.0 9 r A Z l x K Y 1.2.9.2.7.i.2 * ; <  .g N 0.>.v ,.@.:XmXHXHXHXFXqXMXtXSXHX",
"HXHXHXHXFXFX.X@XHXDX5Xf.j C V l J l l K Y 4.,.7.9.7.i.< - - < X.g j M M l 7.;.~.nXHXHXHXFXgXNXtXHXHX",
"HXHXHXHXHXHX XqXHXDX4X+.h w V V F J U j Y 4.0.w.q.s.*.* ; - 1  .m l k c j 0.5.J.nXFXHXHXxX*XkXtXHXFX",
"HXHXHXvXvXW.v.$XDXvX3X] h e w V F J P P i r.t.0.a.g.) * - & 1  .L K A A q 2.d.L.AXMXHXHXhXfXhXtXHXHX",
"FXFXvX).{ ` ] $.E.3X/.{ f c e V A D Y P p.5.5.e.w.X.> % = 2 X.2.>.F e V B G s.K.bX9XSXGXtXhXtXlXHXHX",
"FXAX/._ n h q.P.F.Q.Q.` u c z z S S F 3.8.s.6.n i b y *.=.s.9.Y I F Z C Z U h.H.zXaXGXDXtXhXqXkXHXHX",
"HX3X| l k k d  .8.i.P.' i 0 l c S H I J q.p.q.<.,.2.q.8.6.2.>.I K K S l Z >.h.C.lXJXHXGXtXlX+XZXHXHX",
"nX!.j 9 S M N d h u p.' x 8 x N M H T 2.2.q.7.9.>.<.,.9.0.2.>.I D F S c l P i.C.%XFXHXNX@XlX%XAXHXHX",
"4X$.G D Y w.g.q.0 g ..n q l p  .L Z T Y 2.4.3.0.0.t.a.p.q.9.,.I D Z A A q I h.^ %XJXHXkXOXgX9XFXHXHX",
"(.f.:.J 2.9.p.a.0 d g.| z v | ..:.4.P R 3.4.r.t.0.w.p.q.e.2.,.I Z T e e S <.] C.%X9XHXhXtX9X9XHXHXHX",
"I.f.<.P n P a :.t d ~.&.h k ..I.y.;.r.J 1.3.3.2.0.3.9.9.2.1.1.T F S e c m | [ !.1XZXHX@XXX=XaXGXHXHX",
"/.j.e.P P 3.<.n g p /.K.g M ..Q.(.S.;.5.2.>.2.2.2.2.2.1.Y T I J I S S M g | @.;X1XFXvX6X7XXXBXFXHXHX",
"3X$.a.R D D w.8.{ $.6X!.f q ;.~.6X2X_.S.;.6.,.>.2.4.Y Y Y I P U U <.n d 0 N f.3X6X1XT.$.#.H.AXHXHXHX",
"5XH.d.G i n | *.^.6XAX).a j } !.xXfXdX2XR.f.u.8.d.e.r.e.e.e.6.6.:.n f g z n F.5X3XH.h.s.o.{ R.cXHXHX",
"AX^.@.{ +.$.s ] 3XDXFXcX&.| } Q.6X8XaXCXxX1X_.U.D.D.y.S.S.S.S.S.j.` j V e b /.:X] i.9.M M d ` /.vXHX",
"AXnXR./ U.Y.#.R.vXHXHXnXK.{ ` I.mXrX}.rXdXCXVXVXfX2X<X<X<X2X6X>XG.:.C 9 r ..:XH.s m g 0 0 M n u.5XHX",
"HXDXvX$X X X-XvXHXHXHXFX3X$...j.mXrXuXrXrXyXyXpXpXVXGXBXVXCXSX,Xu.Z 9 r ` K.3XH.a 8 <.,.n M z n :XDX",
"HXHXFX9XoXoXkXHXGXDXHXFXAX^.E f.2XiX}.}.iXiX[.[.uX8X8XaX[.dXxX_.| r C j &.3X>XL.y L a.d.q.2.A i !.nX",
"HXHXHXoXqXoXbXDXSXHXHXHXDX5Xf.%.DXaX|.}.rXrXb.].sX}.uXuXrXxX3Xf.m 9 q u ).cX,X@.0 D ,.,.w.3.D G T.nX",
"HXHXFX+X%XgXSXHXHXHXJXHXDXvX>X/ %XsX|.|.l.b.8X].}.}.}.|.dX2X!...l r u G.vXnX:X@.u 8 j N 6.3.R r.T.DX",
"HXGXHX@XqX<XDXDXGXGXGXHXHXDXvX-X.XCXuX`.+ 5 5 c.0XuX|.sXVX-X5.h h u F.cXDXHXvXR.{ | a.2.N U U a.T.DX",
"HXHXHXbX%XkXHXDXSXDXGXHXHXHXDXDXkXMXdX].5 A.+ l.0X[.{.CXxXJ.| v b f.cXDXHXHXFXvXK.s.9.<.>.L 2.u.T.DX",
"HXHXHXFXHXHXHXDXDXHXGXHXVXHXHXDXHXkXMXaX0X0XV.'.[.[.CXSX/.} u p F.4XnXHXHXHXnXcXK.{ ' G U x 0.u.^.SX",
"FXHXHXHXHXHXHXHXHXDXGXHXHXGXHXHXHXZXyXaX0X0X}.0X8XCXZX$X#.[ u.I.4XnXSXHXHXFXHXnX^.E ] ` f N a.y.5XHX",
"HXHXHXHXHXHXHXHXHXHXHXHXHXHXHXHXHXGXGXfXpXaXaXdXCXBX$XA.W.-XvXvXnXDXGXGXHXHXHXHXcXW.A.H.` p { E.vXDX",
"HXHXHXHXHXHXHXHXHXHXDXHXDXHXHXHXHXGXGXSXCXCXpXpX9XkXAXAXFXHXHXHXHXHXGXDXHXFXHXHXSXkX@X.X%.O.E.vXDXDX",
"SXHXHXHXHXHXHXHXHXHXHXHXDXHXHXHXHXHXGXGXGXGXGXGXGXHXHXFXFXFXHXHXHXGXHXDXDXHXHXFXHX<XoX@X1XnXvXnXDXHX",
"DXHXHXHXHXHXHXHXHXHXHXHXDXHXHXHXHXHXHXGXGXGXGXHXHXHXHXHXHXHXHXGXHXHXHXDXDXHXHXHXHXqX+X+XFXHXHXHXHXHX",
"DXHXHXHXHXHXHXHXHXHXHXHXHXDXHXHXFXHXHXHXHXHXHXHXHXHXDXHXGXSXGXHXHXHXHXHXHXHXHXHXHXCXOXhXHXFXHXGXHXHX",
"HXHXHXHXHXHXHXHXHXHXHXHXHXHXHXHXFXHXnXDXHXHXHXHXHXHXHXDXDXHXHXGXHXHXFXHXHXHXHXHXHXGXGXGXFXHXHXHXHXHX",
"HXHXHXHXHXHXDXDXHXHXHXHXHXHXHXHXHXHXDXSXHXFXFXDXHXGXGXHXAXFXHXHXGXHXHXHXHXHXGXGXHXHXHXFXFXHXGXGXHXHX",
"HXHXHXHXHXHXHXHXHXHXHXHXHXHXFXGXjXBXhXSXVXBXNXZXSXVXJXHXeX$X+XgX=XyXNXFXHXHXGXDXDXDXHXHXFXFXHXGXHXHX",
"HXHXHXHXHXHXHXHXHXHXHXHXHXHXHX+Xn.n.n.n.N.M.n. X Xm.`.kX.Xm.n.N.m.N.@XFXHXHXHXHXHXHXHXHXHXHXHXHXHXHX",
"HXHXHXHXHXHXHXHXHXHXHXHXHXHXHXkXkXMXkXkXDXkXlXZXZXlXSXHXZXkXZXNXbXBXZXHXHXHXHXHXHXHXHXHXHXHXHXHXHXHX"
};
