/* XPM */
static char *e289d386513d4b9a9fa615bf608ecddc6lw7mnZLMpeVlD1r[] = {
/* columns rows colors chars-per-pixel */
"50 50 146 2 ",
"   c None",
".  c #161516",
"X  c #1A1614",
"o  c #1C1917",
"O  c #181718",
"+  c #1E1B1B",
"@  c #211E1D",
"#  c #2B1D1B",
"$  c #341C19",
"%  c #22201F",
"&  c #39211D",
"*  c #211F20",
"=  c #252423",
"-  c #282626",
";  c #292827",
":  c #292728",
">  c #2C2B2B",
",  c #342927",
"<  c #3F2825",
"1  c #312D2C",
"2  c #392E2B",
"3  c #2F302F",
"4  c #30302F",
"5  c #3C312D",
"6  c #302F30",
"7  c #2F3031",
"8  c #333333",
"9  c #3B3635",
"0  c #363738",
"q  c #373838",
"w  c #3B3B3C",
"e  c #4D2724",
"r  c #4D2824",
"t  c #532621",
"y  c #5D2924",
"u  c #40332E",
"i  c #453934",
"p  c #433E3B",
"a  c #513F38",
"s  c #652722",
"d  c #642824",
"f  c #6A2A24",
"g  c #752B25",
"h  c #7B2D26",
"j  c #4E4039",
"k  c #56463E",
"l  c #5F4B3F",
"z  c #1E3F4E",
"x  c #3E3F40",
"c  c #3F4041",
"v  c #204352",
"b  c #434445",
"n  c #464747",
"m  c #454545",
"M  c #434343",
"N  c #484847",
"B  c #464748",
"V  c #47484A",
"C  c #484948",
"Z  c #494A4B",
"A  c #4A4B4D",
"S  c #4B4D4D",
"D  c #4D4D4E",
"F  c #4C4C4C",
"G  c #544740",
"H  c #5E4E46",
"J  c #544A45",
"K  c #59504B",
"L  c #4E4F51",
"P  c #4F5051",
"I  c #515252",
"U  c #515151",
"Y  c #535555",
"T  c #555657",
"R  c #535353",
"E  c #565759",
"W  c #57585A",
"Q  c #595A5B",
"!  c #5A5B5D",
"~  c #5B5C5E",
"^  c #5D5E5F",
"/  c #5B5B5B",
"(  c #62544D",
")  c #7A5B4B",
"_  c #6F5F53",
"`  c #625F5F",
"'  c #735D51",
"]  c #756459",
"[  c #7A6A5D",
"{  c #5E5F60",
"}  c #5F6062",
"|  c #466D7D",
" . c #616262",
".. c #636364",
"X. c #636466",
"o. c #656666",
"O. c #646464",
"+. c #6E6963",
"@. c #676869",
"#. c #68696B",
"$. c #6A6B6D",
"%. c #6C6D6E",
"&. c #797778",
"*. c #767473",
"=. c #842D27",
"-. c #8C2E27",
";. c #862F28",
":. c #8B2F29",
">. c #933129",
",. c #A43129",
"<. c #95725F",
"1. c #897262",
"2. c #957461",
"3. c #967B66",
"4. c #A27962",
"5. c #A97B60",
"6. c #8B817B",
"7. c #A58269",
"8. c #B18369",
"9. c #BB8669",
"0. c #BE8B6E",
"q. c #B6947B",
"w. c #BB9679",
"e. c #C98F6E",
"r. c #587783",
"t. c #577E8E",
"y. c #6C7C82",
"u. c #77878A",
"i. c #7FA1AC",
"p. c #868380",
"a. c #8C8683",
"s. c #ABA396",
"d. c #99ACB4",
"f. c #B4BABC",
"g. c #D1A281",
"h. c #D7AC89",
"j. c #EABB94",
"k. c #F0BF97",
"l. c #F4C29B",
"z. c #F9C59C",
"x. c #E6D0BB",
"c. c #CFD0CF",
"v. c #C2D0D1",
"b. c #C8D4D7",
"n. c #CAD5D9",
"m. c #F6EBE0",
/* pixels */
"                                                                                                    ",
"                                                                                >                   ",
"                                                                                3 >                 ",
"                                                                                3 > :               ",
"                                                                              > 3 > > =             ",
"                                                                            8 8 > > > -             ",
"                                                                        0 j > - : - =               ",
"                                          > - - - = % @ + + +           B > O @           - - > > @ ",
"                                  8 w c b c x w 8 > - = @ @ X X o     8 q o     = 8 0 0 0 0 8 > >   ",
"                              w Z P Y P A V c c w w 8 > = % # X X @   8 =     > > > > > 1 > > > =   ",
"                          > A ! ! W Y P A V b c w q 0 > - - % @ @ X 9 8     > @ + + = = - : > -     ",
"                        8 T X.} ^ W T P A V b c w q 0 8 ; ; - % @ @ 8 I 1 > +                       ",
"                      > Q #.o. .^ Q E P L V b c x q 0 8 > ; ; ; = + % D 0                           ",
"                      N %.#.o. .^ W W Y L A V M x w 0 8 > > ; - % = % > 8                           ",
"                    >  .%.$.o. .} ! W I L A V M x w 8 > 1 > - = - - - + -                           ",
"                    8 o.%.$.#.X.} ! W Y P L V M x q 0 8 > - - > > = - +                             ",
"      > 0           8 } ......} } Q T P D m M w w 0 7 > > > > - = - ; + +                           ",
"      > > 8         : N U U U U P F F F N M M w 0 8 8 8 3 q a - ; ; = o +         > 0 M w           ",
"  w 0 > ; 1   ; # = = M N n m m n n m n m M M w q 8 - + + l 4., = = o X     - : - - 3 w m           ",
"> > 1 8 > ; 4 % X     w C m m F P U F n m M w > + X : ..K 5.8.5 = @ X + > - - = = @ ; 0 x m         ",
"  > > : ; > > o X     = ; : = * - 8 ' 2.<.k + . = O ` c.a.e.0.2 + o o = ; = = % = + = > q M w       ",
"  m w - = > = @ X +     a a.&.X = X 5 g.7.= X Q f.| z t.6.9.) = + o = ; - = = = % % + > 7 w w       ",
"    q = = - # @ . * > > = *.d.v r.+.3.l.k.w.3.x.m.v.i.y.H i - % + = ; ; = % = = = % + = > 8 0 >     ",
"        - - = w = > > > : q 6.u.s.l.z.z.z.l.j.h.q.1.G 4 > : - + = ; = % % =       % 3 m V m 0 >     ",
"            w ^ Z > > > > > q ( ] [ [ ] _ ( J p 0 3 7 3 > > = - > - % % ; %   O > m T Y V w 7 =     ",
"            U ^ Q p > > > 1 > 7 0 w c c c w q 0 8 8 7 > - + = ; % % % % %     = U m w m w > - O     ",
"          w Q / T Y m > - - > > > : 7 0 w q 0 8 > > - = + @ - = % ; = +       ; w ; 8 B 0 = = X     ",
"          M ^ / W D U L M > = = > > > > > > > > > - - % % ; > ; = % +         > > ; w m >           ",
"          Z ` Q W U M m P P w > = - : > > > > > 1 - % = > > - % + o             >     8 ;           ",
"          D ` Q T U N p M B B w 8 - - : > > 3 > - * - : - = @ @ + # y h :.                          ",
"          j Q Q W U Z w w w w q 8 7 > - - = = = - > > - - = # @ % t f h ;.                          ",
"            0 w w M M w 0 7 8 8 8 7 > : = = % - , < e y g h =.s g s d                               ",
"                  : > > > > 3 > > > > ; - = - % # & r y g -.,.h -.g                                 ",
"                        - : > > > > > > ; - % % % o ; > - # $ t g s d g g                           ",
"                              = - - ; > ; - % % % + % 3 > = o       f h >.:.                        ",
"                              O @ @ @ % - - ; % % % o - > = @ o       h :.:.                        ",
"                                    + % = = * * % + o o = = + o                                     ",
"                                    M U A N p > = = + o   - % % 8 8                                 ",
"                                      / ^ Q E F 0 >     q w 8 > 0 8 M                               ",
"                                      F / W R R c 3 8 w M w 0 8 3 8 M M                             ",
"                                        U Q T U w w b b w 0 3 6 8 7 N Z                             ",
"                                          U E R D m V c 0 6 0 0 0 7 j m 0                           ",
"                                            D U U D c x w w w 0 8 7 8 w w                           ",
"                                              Z Z m j w w q 8 8 7 7 > 0 w >                         ",
"                                                                        8 >                         ",
"                                                                                                    ",
"                                                                                                    ",
"                                                                                                    ",
"                                    n.n.n.n.n.n.n.n.n.n.n.n.n.n.n.n.n.n.                            ",
"                                  n.n.n.n.n.n.n.n.n.n.b.b.n.n.n.n.n.n.n.n.                          "
};
