/* XPM */
static char *_1ff7b41472e4fced301708276a0ba4ebkIFUaohf4Ofr5Me[] = {
/* columns rows colors chars-per-pixel */
"50 50 254 2 ",
"   c #05131A",
".  c #17171A",
"X  c #0D0D0F",
"o  c #081936",
"O  c #171D3C",
"+  c #031A2B",
"@  c #16243A",
"#  c #122A30",
"$  c #2C3335",
"%  c #1D221F",
"&  c #783628",
"*  c #5F3027",
"=  c #1D4318",
"-  c #164C2F",
";  c #274E23",
":  c #2A5127",
">  c #315136",
",  c #2D6F31",
"<  c #196A1E",
"1  c #4D5739",
"2  c #416D3D",
"3  c #644A30",
"4  c #1B2644",
"5  c #102D44",
"6  c #2A344F",
"7  c #0F3271",
"8  c #273364",
"9  c #483E56",
"0  c #38435A",
"q  c #3B4C45",
"w  c #364B7C",
"e  c #3C537C",
"r  c #314970",
"t  c #58555A",
"y  c #4B4F52",
"u  c #635159",
"i  c #4F7249",
"p  c #454D65",
"a  c #4C5767",
"s  c #5D5A62",
"d  c #555D75",
"f  c #475479",
"g  c #635A63",
"h  c #5B6A78",
"j  c #68696A",
"k  c #676A75",
"l  c #7C7D7B",
"z  c #767674",
"x  c #73706F",
"c  c #9B2A04",
"v  c #9A340A",
"b  c #9B3818",
"n  c #8A3314",
"m  c #A42A04",
"M  c #A8360A",
"N  c #A43715",
"B  c #B42A03",
"V  c #AC3823",
"C  c #9D3B22",
"Z  c #8C4F39",
"A  c #AD4D34",
"S  c #974619",
"D  c #8E5348",
"F  c #996C54",
"G  c #B96B54",
"H  c #B26C54",
"J  c #83716D",
"K  c #C4604C",
"L  c #C8431F",
"P  c #1C9D0D",
"I  c #1E9F11",
"U  c #19821B",
"Y  c #2B941B",
"T  c #1CA615",
"R  c #2DA41E",
"E  c #27A719",
"W  c #33AA1E",
"Q  c #1D8422",
"!  c #298829",
"~  c #32932D",
"^  c #2DA520",
"/  c #2DAC22",
"(  c #31A522",
")  c #33AA26",
"_  c #31AE26",
"`  c #338B52",
"'  c #4F8F4F",
"]  c #6D8E68",
"[  c #6C9369",
"{  c #7B877C",
"}  c #738E6E",
"|  c #609A65",
" . c #F5F619",
".. c #96AF48",
"X. c #85887C",
"o. c #929874",
"O. c #B48876",
"+. c #BCBA43",
"@. c #CA8C79",
"#. c #0C3787",
"$. c #163C89",
"%. c #0A3591",
"&. c #123FA4",
"*. c #18448A",
"=. c #184696",
"-. c #0E458D",
";. c #374B85",
":. c #385487",
">. c #3B5798",
",. c #274B90",
"<. c #2A699B",
"1. c #335CA3",
"2. c #2D6DA5",
"3. c #1047A2",
"4. c #455885",
"5. c #465A98",
"6. c #4A5586",
"7. c #496597",
"8. c #5C7395",
"9. c #516A8F",
"0. c #7A7781",
"q. c #677D9A",
"w. c #697588",
"e. c #4D69A8",
"r. c #5469A8",
"t. c #5372AD",
"y. c #647AAE",
"u. c #425CA6",
"i. c #617FC5",
"p. c #857D84",
"a. c #83779B",
"s. c #8376AB",
"d. c #399BBA",
"f. c #549697",
"g. c #7B8586",
"h. c #798696",
"j. c #6C8998",
"k. c #4D94A8",
"l. c #5699AB",
"z. c #599AAD",
"x. c #5797A8",
"c. c #5B9BB2",
"v. c #569AB3",
"b. c #4E96AF",
"n. c #7A94B6",
"m. c #6F8AAC",
"M. c #53A2B9",
"N. c #71B7AB",
"B. c #6CA6BC",
"V. c #6BABBC",
"C. c #65A6B9",
"Z. c #72AEB3",
"A. c #62A48E",
"S. c #68C8BD",
"D. c #72C6BB",
"F. c #6AD3BD",
"G. c #72D0B8",
"H. c #5CD1BF",
"J. c #6A8AC5",
"K. c #6CAAC2",
"L. c #6AA6C3",
"P. c #71A7C2",
"I. c #6FB6C7",
"U. c #5A9FC0",
"Y. c #3DC7D7",
"T. c #4CCBCC",
"R. c #48C8CB",
"E. c #54CBCD",
"W. c #5BCDCC",
"Q. c #56C9C6",
"!. c #5CD1C8",
"~. c #44C5D5",
"^. c #4BC5D4",
"/. c #44C9D5",
"(. c #4CC9D5",
"). c #44C6DA",
"_. c #4BC5DA",
"`. c #44C9DB",
"'. c #4CCAD9",
"]. c #53C5D2",
"[. c #53CBD3",
"{. c #57CAD5",
"}. c #54D3D7",
"|. c #4DD1D1",
" X c #63CDC5",
".X c #63CDCA",
"XX c #6AC9C5",
"oX c #76C9C4",
"OX c #65D1C3",
"+X c #6BD3C4",
"@X c #64D3CB",
"#X c #6AD5CB",
"$X c #75D2C4",
"%X c #6BD1D7",
"&X c #7BD6D8",
"*X c #75CED3",
"=X c #78E1D6",
"-X c #65CCE5",
";X c #858584",
":X c #848985",
">X c #898987",
",X c #8B858B",
"<X c #8B8B8B",
"1X c #868689",
"2X c #92898B",
"3X c #8D928B",
"4X c #91918E",
"5X c #939391",
"6X c #8C8C94",
"7X c #8FAD92",
"8X c #8A98B2",
"9X c #8EA3B4",
"0X c #B2AFB2",
"qX c #A89990",
"wX c #CAA29D",
"eX c #B2D6AE",
"rX c #BFE5B9",
"tX c #8ED3BE",
"yX c #C3EABD",
"uX c #879CC2",
"iX c #85B5C2",
"pX c #97ACC9",
"aX c #A5B7CC",
"sX c #C6BDC5",
"dX c #9DC2DC",
"fX c #85DADB",
"gX c #9CD9D7",
"hX c #95CFCB",
"jX c #B9C8D6",
"kX c #AEC6CE",
"lX c #86E3DB",
"zX c #89E4D2",
"xX c #9DC5E6",
"cX c #98DBE8",
"vX c #A5D7EC",
"bX c #93E2E8",
"nX c #BAE3F6",
"mX c #A7E4F0",
"MX c #C6C4CB",
"NX c #C9C8CB",
"BX c #C8CAD7",
"VX c #CBD3D9",
"CX c #CBF3C6",
"ZX c #C5EBC0",
"AX c #CED8E5",
"SX c #C8E6F8",
"DX c #D8EAFB",
"FX c #D6F0F2",
"GX c #E6EDF8",
"HX c #E8F4F9",
"JX c #FDFDFD",
"KX c #F7FAFA",
"LX c #EFF8ED",
"PX c #E8E8DC",
/* pixels */
"Y.~.).).Y.Y.Y.).`.~.Y.).`.Y.~.).~.`.~.).).`.).Y.).).).).).).).).Y.`.).).`._./.~.).).~.~.`.~._.Y.).).",
"^._.~.`._.^._.)./._._.).Y./._.'._.Y.`.~.~.~._.`.~.~.~./.`./.`.~.'.^.~.`.).)./.~./.`.~.).`.`.~.~.~.).",
"'.'._.(./.(._.(._.].^._.'.^.~./._.'.^.^././.'.~.'.'.(.^.^.(.'.^._.R./.'.^.`.T.'.(.^.{._./.(.^.(.(.(.",
"^./.(.'.(.(.(.^./.(.(.(.(.(.'./._.~.}.cX%X{.R.'.(.(.(.(.(.'.(.(.(.'.'._._.(.(._.^.(././.~.'.{.(.(.(.",
"[.[.^.(.(.^.(.'.{.(.R.{.].(.E.].'.(.%XDXDXnX{.(.[.(.[.(.(.(.(.[.R.(.].{.T.R.'.T./.T.Y.fXfX(.^.'.(.(.",
"(.[.{.R.E.T.R.{.R.E.W.T.}.(.].{.{.R.vXSXSXSX%X[.^.[.(.[.[.[.(.[.}.}.}.'.}.%X{.T.%XvXgXSXDX&XR.{.[.(.",
"[.[.}.W.bXmX&X*XcXSXSX%XT.].{.|.[.W.mXSXnXcX[.[.[.E.{.{.{.[.[.].M.d.d.d.d.hX@X^.mXDXSXSXDXfXR.{.[.[.",
"[.W.Q.&XSXDXSXSXSXSXSXmXQ.{.[.{.W.E.E.*X%XE.E.E.E.W.W.W.E.E.E.Q.$.#.w r %.n.#X{.nXnXSXSXSXmX{.E.W.W.",
"W.W.Q.cXSXSXSXSXnXSXnXnXW.E.Q.[.T.R.E.^.T.R.T.^.W.R.'.E.[.E.W.E.=.*. ...%.n.#X[.nXSXSXSXSXSXfXT.W.W.",
"W.W.Q.bXSXSXSXSXDXDXHXFXgX=XlX=XlXlXbXlX&XzXzXlXfXlXfXlX@XW.W..X=.e  .+.%.n.$XQ.*XnXSXSXnXDX&XQ.E.E.",
"W.@XQ.fXSXDXnXFXPXjXjXnXjXBXjXBXjXjXjXBXBXVXBXBXVXBXBXAXfXQ.!.W.-.*...] %.n.#XE..XQ.fXnX&X&X#XW. X!.",
".X!.!..XgXcXfXmX2.7 7.*.r.=.,.$.r.>.7.*.7 #.#.#.#.#.7 <.*XQ.!.W.,.=.%.3.-.n.*X!.!.W.!.W.Q..XQ..X X@X",
"XX@X X.X X X!.@X<.e.jXn.y.uXe.uXm.e.kX,.$.$.-.=.*.*.-.2.#XH.@X X X.X X.XQ.gXD.!.#X XXX@X.X.XOXQ..X.X",
"+X!.#X X!.OXH.#X<.e.m.m.7.aXx.9Xe.>.pX=.$.*.=.$.$.-.-.2.+XF.XX+X@XF.S.#XS.gX$X@X X+XOX X XXX XoX.X#X",
"+X+X+X+X+X#XOX&X2.=.=.1.J.>.m.1.n.t.y.=.%.-.%.-.%.$.%.<.=X@X@XOX+XXXF.OX+XgXoXOXOX+X XOX#XK.C.B.XXXX",
"OX+XS.F.N.N.N.N.>.w >.:.w :.,.w w w ;.:.>.:.:.:.:.:.:.9.N.N.N.N.#XOXG.$X+XhXoX+XoXOX+X+XXXV.B.P.C.XX",
"F.F.F.F.Z.2X<X2X4X4X4X4X5X5X5X5X6X5X5X5X2X4X5X4X5X4X5X6X,X2X,X7X$X+X+XG.OXgXhXF. XV.XXG.L.L.V.K.L.XX",
"$X$X$X+XgXJXKXJXKXJXKXKXKXJXKXJXKXKXKXJXKXKXKXJXKXKXKXJXKXJXJXfXF.F.$X$XS.kXoXD.I.C.I.D.L.K.V.K.B.oX",
"$X$XF.F.tXNXNXNXNXMXsXNXMXMXNXNXNXBXMXMXMXNXBXNXBXNXMXNXNXjXBXtXD.N.V.B.c.aXZ.P.Z.C.K.C.K.K.L.L.C.oX",
"Z.Z.V.*XN.0 @ 6 p 4 6 a 4 4 p 4 @ p 6 @ p 0 @ 6 p O 4 s @ @ p ;XX.;X1Xp.p.0X2XJ g.B.I.C.K.K.L.V.V.D.",
"K.I.L.V.V.r 4 p h 4 6 w.6 4 w.6 4 h p 4 d f O 0 h 4 6 w.$ 4 d 2X6X,X<Xg.0.0X6X0.1XL.P.L.V.V.L.V.L.P.",
"K.K.V.B.I.0 o 6 d O 4 h 4 O h 6 o d 6 o p p o 0 a O 8 d 4 4 q D 3 D D Z Z qXF Z z K.P.K.K.V.V.V.L.B.",
"K.B.L.L.V.9.p 9.h.p d 6Xa a h.d p h.k p w.w.p k 0.f d 6Xp f & m c c N m c @.K B J I.B.C.L.K.B.P.L.V.",
"K.K.K.C.iXKXKXJXJXJXKXJXJXJXJXJXJXJXJXJXJXJXJXJXJXJXJXKXJXJXPXA m & & C c O.D B J I.B.K.K.K.K.L.K.V.",
"V.v.c.c.hXJXJXJXJXJXJXJXJXJXJXJXJXGXdXxXxXxXxXaXdXxXdXdXdXdXKXG c 9 >.& & 6Xd m J K.z.c.B.L.P.V.K.K.",
"C.l.z.x.hXJXKXKXJXJXKXJXKXJXKXKXJXJXDXDXGXDXDXDXDXGXDXDXDXGXJXG c f 1.Z n uX6.m J U.l.z.B.K.C.P.K.V.",
"C.k.c.k.9XJXVX6.w.JXaX:.n.JX8X4.pXJXHXj.9.8.8.8.8.9.8.8.q.HXJXG m & * n n 6Xu m J M.l.x.C.B.c.B.K.K.",
"c.l.z.k.iXKXjX;.5.JX9X;.q.JXq.;.9XKXGX4.w 5.r ;.>.w f ;.4.KXJXG v N N N c G A B x l.x.x.c.C.x.c.l.z.",
"b.z.z.k.hXJXjX>.9.JXpX;.m.JXy.>.8XJXLX4.u.r.f 5.r.f 5.r.9.GXJXH V A N b c O.K L F M.l.l.c.c.z.z.l.l.",
"z.l.x.x.Z.JXjX5.t.KXpX5.n.JXq.>.pXKXHX7.e.r.4.e.r.f r.r.7.HXJXG B N b N c @.A c j k.f.v.x.c.v.z.z.z.",
"z.c.z.k.iXJXjX5.5.JXpX>.q.KX8X5.8XJXGX9.r.5.;.r.e.w e.7.4.GXJXG c b N b c O.Z & x g.F k.v.x.x.x.z.l.",
"x.z.c.k.iXJXaXr f JX9X8 q.JXq.7 8XJXGX9.6.5.6.5.5.4.5.5.9.LXJXG v N N b M @.A Z s N.qXb.x.x.c.v.l.z.",
"z.z.z.k.dXeX~ jXSXJXFXPXA.' HXAXGXKXHX4.>.J.6.5.i.6.5.t.7.HXJXK m N N M v @.F s.6XJ.8XU.x.c.x.c.z.z.",
"x.v.x.z.l.Q Q eXKXJXJXrX! ! eXJXKXKXLX8.y.r.;.y.r.;.J.r.4.HXKXG v b L A M H F s.g.n.h.f.v.z.x.v.z.z.",
"v.v.z.v.| Q ! Q eXJXJX| < 1 3 NXKXKXHX7.e.;.6.e.5.6.e.;.7.HXJXG c v V N M wXH a.' z.pX` f.c.x.c.v.v.",
"x.f.x.x.` ! ! Q [ LXg.# , y ; y 0.PXFXh r 4.r w w r 6.;.d PXLXH n S S S v @.F $ i w.q.' ` x.f.x.f.x.",
"R W / R ! ! ! ~ ! >   ; i , - i : = 2 3X,X>X{ X.J 6XJ g.<X' E ( ( R ( ( I [ ' # , i > ~ < W ) ( ^ ( ",
"R ^ ^ ) ! ! < # -   6 X.qX3Xl >X3XJ x y a k z <X2X>X:XX.5XX.E ) ) W ( ^ _ _ ) 1 ! , , , Y W R ^ ^ ^ ",
"E E E R T 1 . o o o k sX9X9X0X6X0X9Xj.o + o + # p X.1X>X<X:X) T E E E ^ / R R ..) , , Y E E R ^ R E ",
"] } ] [ [ * o 5 #   q 0Xg.j.h.j.6X0X5Xo % # + a x { ,X:X1X1X:X] ] } ] ] [ [ ] o.X.i y ] } [ ] ] ] } ",
"2X,X,X6X0.# 5 5 % . X p.0X0X0X0X0X0XqX. . . # @ $ k <X>XX.>X,X,X,X2X,X,X,X2Xp.s l s y 0.,X2X,X6X2X,X",
";X;X>X1X:Xk 0 $ . 6 . y >Xl x z z l a   $ % $ 0 y g.>X;X>X1X1X1X6X1X;X>X;X1X1X;X>X;X>X;X;X;X;X1X>X;X",
"1X<X>X;X<Xg.x j $ X % s t t t y y t t y % . g x 0.6X,X1X1X<X>X1Xp.<X1X>X<X1X1X>X;X>X>X;X>X1X1X1X1X1X",
",X;X;X;X>Xl z x x 1 t x j j x x k j j j 1 y x z { <X>X1X;X;X;X1X<X:X<X;X;X1X;X;X;X>X<X<X;X>X:Xp.:X;X",
"2X5X4X<X;Xl X.l l 2X<XX.X.>Xz z x z X.2X3X5X4X;Xl X.z X.5X3X3X<X;Xz g.l X.4X<X3X<X1Xl l g.l >X5X2X4X",
"t g g t 1XNXsXsXNXz s j g x sXMXMXNX2Xt g s g 0XMXaXsX0Xt g g s qXBXsXsX0Xs g g t 2XNXsXsXsXx t g g ",
"; ; : = ] yXrXyXyXi = : = 2 yXyXrXCX[ = : ; : eXyXyXZX7X= : : = 7XCXrXCXeX; ; : = ] CXyXyXyX> ; ; ; ",
"/ / / W E P P P I W _ / W W P I T P E / / _ W I I I P I W W / _ T I I I T / W _ / E I I P P W _ / / ",
"R R R ^ ^ ( ( ( ( ( R R R ( ( ( ( ( ( R R R ( ( ( ( ( ( ( R R R W W ( ( ( ^ R R R ( ( ( ( ( R R ^ R ",
"^ ^ ^ R ^ ^ ^ ^ ^ ^ R ^ R R ^ ^ ^ ^ ^ ^ ^ ^ ^ R ^ ^ ^ ^ ^ R ^ ^ R W ^ ^ ^ ^ ^ R ^ ^ ^ ^ ^ ^ ^ ^ ^ ^ "
};
