/* XPM */
static char *_c65541f1eb54649feae8e61e00aa921UiirMmmS6PsguOqn[] = {
/* columns rows colors chars-per-pixel */
"50 50 237 2 ",
"   c #3A2625",
".  c #702C1F",
"X  c #492A27",
"o  c #4C2F2C",
"O  c #572C27",
"+  c #4D312E",
"@  c #55312E",
"#  c #5E3329",
"$  c #5E332A",
"%  c #553431",
"&  c #5C3632",
"*  c #5E3A34",
"=  c #683527",
"-  c #633329",
";  c #6C352B",
":  c #6C3B2C",
">  c #783626",
",  c #733B2D",
"<  c #7A3D2C",
"1  c #633835",
"2  c #643C34",
"3  c #6B3C33",
"4  c #733D31",
"5  c #783A34",
"6  c #5D4039",
"7  c #7C422D",
"8  c #684339",
"9  c #6C453B",
"0  c #754234",
"q  c #7C4333",
"w  c #7E4B36",
"e  c #74463C",
"r  c #7B453A",
"t  c #75493D",
"y  c #7C4A3C",
"u  c #7B4A43",
"i  c #7F544D",
"p  c #8D3922",
"a  c #873E2A",
"s  c #923E25",
"d  c #9D3E22",
"f  c #843D33",
"g  c #894327",
"h  c #83442D",
"j  c #8B442C",
"k  c #83482E",
"l  c #8C4A2D",
"z  c #974227",
"x  c #93442B",
"c  c #954A2D",
"v  c #9B4C2D",
"b  c #9D512D",
"n  c #834433",
"m  c #8B4532",
"M  c #854934",
"N  c #8C4B34",
"B  c #834539",
"V  c #8D4738",
"C  c #854C3B",
"Z  c #8B4D3A",
"A  c #914635",
"S  c #9A4735",
"D  c #944C33",
"F  c #9B4D33",
"G  c #934D3B",
"H  c #9B4D39",
"J  c #8E5036",
"K  c #85513C",
"L  c #8C513D",
"P  c #945136",
"I  c #9C5235",
"U  c #9F5837",
"Y  c #94533C",
"T  c #9C543B",
"R  c #955A3F",
"E  c #9D593D",
"W  c #A64727",
"Q  c #A44C2C",
"!  c #AD4D2F",
"~  c #B54D2C",
"^  c #A4522E",
"/  c #AD542E",
"(  c #B5522F",
")  c #B8542B",
"_  c #A34D33",
"`  c #AB4E32",
"'  c #A34F3C",
"]  c #B54F32",
"[  c #A35335",
"{  c #AB5434",
"}  c #A65835",
"|  c #AD5A36",
" . c #A3553B",
".. c #AA553A",
"X. c #A45A3D",
"o. c #AC5B3C",
"O. c #B35435",
"+. c #BA5635",
"@. c #B25A35",
"#. c #BB5B34",
"$. c #B25639",
"%. c #B35C3C",
"&. c #BB5C3A",
"*. c #AD613E",
"=. c #B86236",
"-. c #B4623D",
";. c #BB633D",
":. c #C85C2F",
">. c #C35631",
",. c #C35A35",
"<. c #C25E3B",
"1. c #C16437",
"2. c #CC6336",
"3. c #C3633C",
"4. c #CC653C",
"5. c #C6693C",
"6. c #D56B3A",
"7. c #D96E3F",
"8. c #884C43",
"9. c #944D42",
"0. c #865344",
"q. c #8C5342",
"w. c #8E5944",
"e. c #88574C",
"r. c #945543",
"t. c #9B5642",
"y. c #965A44",
"u. c #9D5A43",
"i. c #97564B",
"p. c #955B4B",
"a. c #9D5C4B",
"s. c #8C5E55",
"d. c #985C51",
"f. c #A25642",
"g. c #A55646",
"h. c #A45C43",
"j. c #AB5D43",
"k. c #A35D4A",
"l. c #A95E4A",
"z. c #B15D41",
"x. c #B15B47",
"c. c #BB5F42",
"v. c #A25D51",
"b. c #9B6149",
"n. c #8D6156",
"m. c #936153",
"M. c #9C6153",
"N. c #9D675C",
"B. c #A36244",
"V. c #AC6244",
"C. c #AE6845",
"Z. c #A4624A",
"A. c #AC634B",
"S. c #A6684C",
"D. c #AD694C",
"F. c #B46343",
"G. c #BB6443",
"H. c #B66A46",
"J. c #BD6945",
"K. c #B3654B",
"L. c #BC664B",
"P. c #B46A4B",
"I. c #BB6B4C",
"U. c #B7704E",
"Y. c #BB714C",
"T. c #A36453",
"R. c #AD6552",
"E. c #A76B53",
"W. c #AD6A53",
"Q. c #AA6659",
"!. c #A56B5C",
"~. c #AC6B5C",
"^. c #B36552",
"/. c #B96551",
"(. c #B36B54",
"). c #BA6C52",
"_. c #B46B5A",
"`. c #BB6D5B",
"'. c #AD705F",
"]. c #B37254",
"[. c #BD7353",
"{. c #BC735C",
"}. c #BF7958",
"|. c #9A6D63",
" X c #AA7768",
".X c #B77667",
"XX c #BA7E72",
"oX c #C36444",
"OX c #C96543",
"+X c #C46A45",
"@X c #CB6B44",
"#X c #C26649",
"$X c #CE674D",
"%X c #C46C4C",
"&X c #CB6D4B",
"*X c #D36D42",
"=X c #D56D49",
"-X c #C3724D",
";X c #C87349",
":X c #CA744C",
">X c #D37245",
",X c #DA7344",
"<X c #D5734B",
"1X c #DD774A",
"2X c #C46D55",
"3X c #CB6E51",
"4X c #C26E5A",
"5X c #D66D51",
"6X c #C37454",
"7X c #CA7452",
"8X c #C67659",
"9X c #C4745A",
"0X c #CB7C5C",
"qX c #D27653",
"wX c #D37A55",
"eX c #DB7C55",
"rX c #D77759",
"tX c #D37B5E",
"yX c #E7784A",
"uX c #C77A68",
"iX c #D67D67",
"pX c #BA826E",
"aX c #CC8258",
"sX c #DB8257",
"dX c #D3825D",
"fX c #E68456",
"gX c #ED8C5B",
"hX c #CE826A",
"jX c #DB8463",
"kX c #D48469",
"lX c #DC856C",
"zX c #CE8673",
"xX c #DB8C75",
"cX c #E98F62",
"vX c #F59660",
"bX c #E79379",
"nX c #E99782",
/* pixels */
"r.Y p.E.d.r.c D q.e.i i u y t.X.R R q.L h.I.qX&XZ.p.E.T.%.c.^.q.G h.h.h.F.;.-.Y k k Y B.aXdXI.^.6XK.",
"^.l..XuX.XG.~ +.a.d.n.m.0.R h.o.X.E L J X.G.&X&XV.a.^.^.c.%.K.r. .j.z.%.@X*X6.o.b b 4.+XgXvXqX<XyX,X",
"Y Z p.T.A.f. .X.u.a.e.0.t K T Y K q 9 L  .J.F.%.V.k.j. .j.t.G Y A.(.P.K.;.@.o.P 7 l X.I %.J.o.j.K.;.",
"f.{ _ L.=X5X7X=X@X%XJ.u.w.*.5.-XF.F M %.,XyX,X,X1X%XG.<.OXz.$.$.qXcXgXsX6.+.oXG.b I ;.O.5.wXOX+XdXgX",
"Z I F  .$.c.j.%.%.j.K.L 0 Y X.k.Y m 7 Z t.%.F.A.j.l.f.a.a.d.r.i.B.V.P.V. .T T T h h P I | X.F.h.^.Y.",
"o.%.o.{ &.@X1X>X@X,XeXl.D ' k.k.j.f._ T i.z.$X9Xx./.c.'.pXpX!.hXkX)._.`.~.l...j.E N H h.( ( ^.uXtX{.",
"[ [ [ F | ;.+X;.F.G.).r.Z F G G G r.I D G T j.l.k.k.l.a.!.!.d._.).h.k.v.a.u.t.T w w l J F [ h.`.%XW.",
"V.F.a.E.Y.-XI.| | o.k.q.8.X.S ' t.o.:XD.A.^.R.x.%.I.uXbXkX/.$X3XK._.x.l.x.g.g.(.M w J N t./.9XrX)._.",
"h.-.u.S.H.F.H.{ { X.t.L q. .D H Y o.;XB.k.l.A.V. .A.{.0X0XK.#X#Xl.A.l.l.l.g.i.^.w w N F  .K.&X3X^.R.",
"M Y [ h.o.o.[ ..a.t. . .T f.t.T [ X.F A u.j.%X:Xx.3X5Xx.z...z./.2X/.x. ...z.G.3XY C N N D -.#Xj. .%.",
"v [ $.| &.&.~ #.T.j.&.z.&.&. .;.2.5.{ _ x.L.<X1XI.=X1XoX&.#.c.2X5X3Xc.$.<.#X=XyXX.Y  . .{ 7.6.&.O.<.",
"I D T j.z.z.X. .h.h.h.t.Y 0.Z Y o.=.$.Y E X.K.].A.K.L.o.z.z...[ j.x.j.l._._./. .0 Y T m D ).{.uX%.{ ",
"..{ @.7XeXwX-X@X@X;.5.;.X.0.H ..c.6.:.j.H.#.I.Y.G.3X&X<.OX@X,.&.+XOXOX9XxXbXkXc.l j.1.` %.lXbXnX3X>.",
"r.Z P o.j.%.F.o. .I  . .L B Z E h.o.o.u.u.o.K.K.V.K.G.A.K.j. .j.j.%...t.A.W.k.t.Z q.Y t.t.a.Q.K.H ' ",
"d.e.#.:.6.@X3.OXK.o.} @.| c [ @X<X#XG.@X@XeXfXgXdX,X*XwX&X3.@XOX4.$XoX] oX%X<.&.P.6X{.9X3XK.3X&.] OX",
"q.0.} / -.o.F I r.P D G I N Z o.G.Z. .o.G.I.:X:X).K.z.I.l.j.K.j...X.j. .z.x. . .E V.A.Z.A.k.A. .[ X.",
"| { G.6XuX%XS.n.n.s.Q.).D.b.Y ' D.B.X.6XsXsX-X:XwXdXiXjX.XuXiXiXK.{  .{.&X<.H.&.F ..7X2Xz...$.#.G.#.",
"o.Q z.).I.;.V.s.s.m.T.A.S.w.Y t.B.E E H.:X:XH.*.J.9X9X9X X(.2X).j.'  .(.#X$.j.[ D  .K.oXz.[ { $.%.{ ",
"| $.J.@X;X%.#.| V.G.J.j.h. . . ...x._ S _ ....o.V.4X`.K.oX&.%.$.+.&.G.#XoXz.K.F.j.` _ o.j.f.V.I.%X).",
"@.;.#.) 1.5.#.&.&.<.@XG.G.%.j.O.<.c.` Q { ' $.$.A.4X9X/.4.2.5.,.>.<.#X#XoXD.+X+Xz._ ! } l.j./.+X-X9X",
"T  .S G ~..Xu.@...} o.o. .Y q.q.t.[ E h.T _ X.T T j.(.{.^.F.;.%.k.`._.d. . .l.X.F U X.h.X.V.Y.-XK.@X",
").OXoX^.zXzX}.1.1.G.oX1...u.u.r.t.` $.H.=.( J.&.] <.uXlXuX+X,.3..XuXuX.X$.;.&X<.~ &.:X>X3.J.>X<X;X>X",
"E F T E Z.D.(.j.[ j.X.I P y.w.n.i.t.Y y.y.T X.F G t.k.a.A.o.[  .x.f.i.l.f.t.^.R.u.K.[.C.V.D.C.K.I.I.",
"OX5.G.3.;.<XfXeXc.2.2.-.H.G.S.pXuX(.I.o.V.K.$.#.K.4X2X_.qX1X:X@X1X*XOX=X$X_.uXiX`.jXcX0X0XsXdXwXsXfX",
"[ } [ I [ o.*.F.X.[ [ G E X.k.M.A.k.h.T h.X.D I Y t.h.u.Z.V.j.k.j.o.f. .[ T k.k.t.D.D.B.V.j.X.h.Z.o.",
"| #.#.#XoX&.F.>X<XL.%.F o.G.+X+XG.3.3.J.+XOXF.[ T r.F.-.-.A.`.pXE.+X+XK.O.` o.;.=.C.].;.;.%.%.%.Z.@.",
"G F } o.X.U E o.o.u.I l D [ o.X.T [ } h.o.o.T D l Z u.I I T f.v.a.X.j.u.F F T j. .u.S.X.*.U [ o.Z.X.",
"v I K.L._. X XT.M.R.T.h.;.%.Z.N.N.N.U.U.(.a.A.V.T X.V.a.H  .X.%.%.V.P.%X[.j.K.K.C.;X5.-.&X;XK.}.7X).",
"I X.l.l.E.|.~.k.h.l.a.k.1.;.k.T.T.!.].Y.].T.A.V.U | X.t.T *.V.F.F.A.P.G.K.f.o.V.B.=.=.*.J.G.V.D.K.k.",
"X.P.R.r.r.d.w.c A I V.-.| X. .X.H F I  .o...T I I D X.X.X.j.).V.X.J.K.h.F F E C.B.D.V.;.=.C.H.T.M.(.",
"o.&XI.r.a.a.w.Q Q } ;.3.{ F.;.%.{ ` %.=.3.1.| { { } ;.;.&.o.+X;.z.*X#Xj.$.@.H.J.*.].I.>X+XY.-XW.!.}.",
"Y Y J N C Z N Z N g x D N D P T P l D l l F F F D D v I [ F D I h.h.E I D P I U b.y.U B.S.S.b.M.T.m.",
"I.j.| / X.| / V.%.W W ..| 3.J.:X;.*./ Q Q %.+.&.%.` ` %.,.>...z.oXG.+X#.$.G.;.3.K.C.=.U.aXaX}..X{.W.",
"C C w w K C h j j g c P N c Y I I D c j F F F u.t.I _ h.I I F D G F u.Y I P I E R R Z.Z.b.u.Y y.b.Z.",
"u.A.a.b._.Q.T d d [ G.3.} { &.%.;.5.5.} #.#.A.9X6X).G.oXH.H.;.;.*.#.Y.].{ | D.aXU.].aX0X[.%.{ @.C.:X",
"C M M C L K Z g g D F c N F F F I ^ U N D c Y a.u.T I I E B.U U Y T a.u.P J R Z.b.w.y.a.u.P G Y R L ",
"A.X.b I I | ;.%.o.' h.t. . .H { [ [ -.;.| I $.F.*.-...X.*.| *.Y.6XY.pX6X'.b.U v h.x.K.k...g.g.}.aXaX",
"E J g a l P [ F D j Y V Z A D I U [ =.=.} x ^ } B.H.o.h.} I R *.C.S.E.S.T.P c c G E h.a.H G Y h.*.B.",
"N Y R.Y v D A x s m V A V V H G F x v D } F T X.E X.[ z F Z.H.*.P b c P I F c v m n } -.X.I / ^ b =.",
"B G Z.N c D m s s V G S 9.A ..H F W ! [ &.%. .$.=.F.` s v P.7XY.U W v [ / ^ F I x l I }  .v Q v b } ",
"< l l g g N m N C 9.9.8.y.t.Z x g m D D G t.D I E I X.L B Z L c j j j j l K 0.y y a.b.M U U l l c g ",
"> g b z x Q [ H i.l.g.a.A.l.t.W d D  .{ ' X.S o.X.^ | a.f V Y W W b ^ d v d.d.e.e.D.U.P } -.D v W z ",
"> . g k l P M h q M n Z Z r.r.t.N Y t.M 5 u 5 5 q m M B C B L P M M l m N Y J M N N N P P n h < , = ",
"< . p c Q / m p p A z ..H v.Q.v.a.H.U.p.9.8.u m j T E Y E.h.J.+XX. ._ X.-.5.*./ | I ^ / [ m l a 7 > ",
": : , 7 7 h 0 , 7 J N Z C q.0.u C L Y 0.Z y e h h V B n 0.Y Y q.Z n r N J P N P N k k 0 , : : : : ; ",
"h 0 , 7 7 < 7 < C u.I t e.a.0.u Z [ T Z.u.q.r M r.f Z m H ..I 0.k.X.0.I c R / / b / #.J , f y n g 7 ",
"- O $ = : : ; - : M 5 3 u K u 2 5 N M Y q.0.e C C 5 q f j c n e Z L t N k K N c M l l q 0 , : 8 = : ",
"X O O : M , % ; : : ; > : ; x 0 ; G r 4 q 5 0 R h.Z 3 q h 5 , q r Z r M u.*.R J P U Y l P h h 7 0 7 ",
"    X $ = $ o $ # O O O = O 7 > - h 0 : , ; 5 L Y y 2 4 q - 0 0 e 8.r q N h C n J w 0 < q : ; : $ $ ",
"      O @ + % @ + + o + @ @ X $ 8 @ @ @ @ @ & & 2 8 8 * 6 * t 2 3 3 8 8 0 8 u 9 * & : & & * & - O & "
};
